<?xml version="1.0" encoding="utf-8" standalone="no"?>
<!DOCTYPE svg PUBLIC "-//W3C//DTD SVG 1.1//EN"
  "http://www.w3.org/Graphics/SVG/1.1/DTD/svg11.dtd">
<svg xmlns:xlink="http://www.w3.org/1999/xlink" width="950.4pt" height="684pt" viewBox="0 0 950.4 684" xmlns="http://www.w3.org/2000/svg" version="1.1">
 <metadata>
  <rdf:RDF xmlns:dc="http://purl.org/dc/elements/1.1/" xmlns:cc="http://creativecommons.org/ns#" xmlns:rdf="http://www.w3.org/1999/02/22-rdf-syntax-ns#">
   <cc:Work>
    <dc:type rdf:resource="http://purl.org/dc/dcmitype/StillImage"/>
    <dc:format>image/svg+xml</dc:format>
    <dc:creator>
     <cc:Agent>
      <dc:title>Matplotlib v3.11.2, https://matplotlib.org/</dc:title>
     </cc:Agent>
    </dc:creator>
   </cc:Work>
  </rdf:RDF>
 </metadata>
 <defs>
  <style type="text/css">*{stroke-linejoin: round; stroke-linecap: butt}</style>
 </defs>
 <g id="figure_1">
  <g id="patch_1">
   <path d="M 0 684
L 950.4 684
L 950.4 0
L 0 0
z
" style="fill: #ffffff"/>
  </g>
  <g id="axes_1">
   <g id="patch_2">
    <path d="M 107.496 560.88
L 586.296 560.88
L 586.296 82.08
L 107.496 82.08
z
" style="fill: #ffffff"/>
   </g>
   <g id="patch_3">
    <path d="M 564.532364 321.48
C 564.532364 292.900255 558.902777 264.598411 547.965782 238.194169
C 537.028787 211.789928 520.99708 187.796783 500.788149 167.587851
C 480.579217 147.37892 456.586072 131.347213 430.181831 120.410218
C 403.777589 109.473223 375.475745 103.843636 346.896 103.843636
C 318.316255 103.843636 290.014411 109.473223 263.610169 120.410218
C 237.205928 131.347213 213.212783 147.37892 193.003851 167.587851
C 172.79492 187.796783 156.763213 211.789928 145.826218 238.194169
C 134.889223 264.598411 129.259636 292.900255 129.259636 321.48
C 129.259636 350.059745 134.889223 378.361589 145.826218 404.765831
C 156.763213 431.170072 172.79492 455.163217 193.003851 475.372149
C 213.212783 495.58108 237.205928 511.612787 263.610169 522.549782
C 290.014411 533.486777 318.316255 539.116364 346.896 539.116364
C 375.475745 539.116364 403.777589 533.486777 430.181831 522.549782
C 456.586072 511.612787 480.579217 495.58108 500.788149 475.372149
C 520.99708 455.163217 537.028787 431.170072 547.965782 404.765831
C 558.902777 378.361589 564.532364 350.059745 564.532364 321.48
M 559.531042 321.48
C 559.531042 349.402978 554.030824 377.05444 543.345163 402.851908
C 532.659502 428.649375 516.996207 452.091153 497.25168 471.83568
C 477.507153 491.580207 454.065375 507.243502 428.267908 517.929163
C 402.47044 528.614824 374.818978 534.115042 346.896 534.115042
C 318.973022 534.115042 291.32156 528.614824 265.524092 517.929163
C 239.726625 507.243502 216.284847 491.580207 196.54032 471.83568
C 176.795793 452.091153 161.132498 428.649375 150.446837 402.851908
C 139.761176 377.05444 134.260958 349.402978 134.260958 321.48
C 134.260958 293.557022 139.761176 265.90556 150.446837 240.108092
C 161.132498 214.310625 176.795793 190.868847 196.54032 171.12432
C 216.284847 151.379793 239.726625 135.716498 265.524092 125.030837
C 291.32156 114.345176 318.973022 108.844958 346.896 108.844958
C 374.818978 108.844958 402.47044 114.345176 428.267908 125.030837
C 454.065375 135.716498 477.507153 151.379793 497.25168 171.12432
C 516.996207 190.868847 532.659502 214.310625 543.345163 240.108092
C 554.030824 265.90556 559.531042 293.557022 559.531042 321.48
z
" clip-path="url(#p81d66ea0a1)" style="fill: #7043a1"/>
   </g>
   <g id="patch_4">
    <path d="M 501.975991 378.995202
L 501.975991 263.964798
L 506.977313 263.964798
L 506.977313 378.995202
z
" clip-path="url(#p81d66ea0a1)" style="fill: #dfebe3; stroke: #819a88; stroke-width: 0.35; stroke-linejoin: miter"/>
   </g>
   <g id="patch_5">
    <path d="M 531.545602 281.285337
L 474.0304 181.666085
L 478.361672 179.165424
L 535.876874 278.784677
z
" clip-path="url(#p81d66ea0a1)" style="fill: #dfebe3; stroke: #819a88; stroke-width: 0.35; stroke-linejoin: miter"/>
   </g>
   <g id="patch_6">
    <path d="M 474.245622 215.934389
L 374.62637 158.419187
L 377.12703 154.087915
L 476.746283 211.603117
z
" clip-path="url(#p81d66ea0a1)" style="fill: #dfebe3; stroke: #819a88; stroke-width: 0.35; stroke-linejoin: miter"/>
   </g>
   <g id="patch_7">
    <path d="M 404.411202 141.471423
L 289.380798 141.471423
L 289.380798 136.470101
L 404.411202 136.470101
z
" clip-path="url(#p81d66ea0a1)" style="fill: #dfebe3; stroke: #819a88; stroke-width: 0.35; stroke-linejoin: miter"/>
   </g>
   <g id="patch_8">
    <path d="M 319.16563 158.419187
L 219.546378 215.934389
L 217.045717 211.603117
L 316.66497 154.087915
z
" clip-path="url(#p81d66ea0a1)" style="fill: #dfebe3; stroke: #819a88; stroke-width: 0.35; stroke-linejoin: miter"/>
   </g>
   <g id="patch_9">
    <path d="M 219.7616 181.666085
L 162.246398 281.285337
L 157.915126 278.784677
L 215.430328 179.165424
z
" clip-path="url(#p81d66ea0a1)" style="fill: #dfebe3; stroke: #819a88; stroke-width: 0.35; stroke-linejoin: miter"/>
   </g>
   <g id="patch_10">
    <path d="M 191.816009 263.964798
L 191.816009 378.995202
L 186.814687 378.995202
L 186.814687 263.964798
z
" clip-path="url(#p81d66ea0a1)" style="fill: #dfebe3; stroke: #819a88; stroke-width: 0.35; stroke-linejoin: miter"/>
   </g>
   <g id="patch_11">
    <path d="M 162.246398 361.674663
L 219.7616 461.293915
L 215.430328 463.794576
L 157.915126 364.175323
z
" clip-path="url(#p81d66ea0a1)" style="fill: #dfebe3; stroke: #819a88; stroke-width: 0.35; stroke-linejoin: miter"/>
   </g>
   <g id="patch_12">
    <path d="M 219.546378 427.025611
L 319.16563 484.540813
L 316.66497 488.872085
L 217.045717 431.356883
z
" clip-path="url(#p81d66ea0a1)" style="fill: #dfebe3; stroke: #819a88; stroke-width: 0.35; stroke-linejoin: miter"/>
   </g>
   <g id="patch_13">
    <path d="M 289.380798 501.488577
L 404.411202 501.488577
L 404.411202 506.489899
L 289.380798 506.489899
z
" clip-path="url(#p81d66ea0a1)" style="fill: #dfebe3; stroke: #819a88; stroke-width: 0.35; stroke-linejoin: miter"/>
   </g>
   <g id="patch_14">
    <path d="M 374.62637 484.540813
L 474.245622 427.025611
L 476.746283 431.356883
L 377.12703 488.872085
z
" clip-path="url(#p81d66ea0a1)" style="fill: #dfebe3; stroke: #819a88; stroke-width: 0.35; stroke-linejoin: miter"/>
   </g>
   <g id="patch_15">
    <path d="M 474.0304 461.293915
L 531.545602 361.674663
L 535.876874 364.175323
L 478.361672 463.794576
z
" clip-path="url(#p81d66ea0a1)" style="fill: #dfebe3; stroke: #819a88; stroke-width: 0.35; stroke-linejoin: miter"/>
   </g>
   <g id="patch_16">
    <path d="M 506.977313 378.995202
L 506.977313 263.964798
L 507.477445 263.964798
L 507.477445 378.995202
z
" clip-path="url(#p81d66ea0a1)" style="fill: #bc693e"/>
   </g>
   <g id="patch_17">
    <path d="M 507.477445 378.995202
L 507.477445 263.964798
L 507.602478 263.964798
L 507.602478 378.995202
z
" clip-path="url(#p81d66ea0a1)" style="fill: #c9a629"/>
   </g>
   <g id="patch_18">
    <path d="M 507.602478 378.995202
L 507.602478 263.964798
L 508.602743 263.964798
L 508.602743 378.995202
z
" clip-path="url(#p81d66ea0a1)" style="fill: #78919c"/>
   </g>
   <g id="patch_19">
    <path d="M 508.602743 378.995202
L 508.602743 263.964798
L 509.352941 263.964798
L 509.352941 378.995202
z
" clip-path="url(#p81d66ea0a1)" style="fill: #303c49"/>
   </g>
   <g id="patch_20">
    <path d="M 509.352941 346.48661
L 509.352941 296.47339
L 529.858361 296.47339
L 529.858361 346.48661
z
" clip-path="url(#p81d66ea0a1)" style="fill: #ead5a3"/>
   </g>
   <g id="patch_21">
    <path d="M 529.858361 346.48661
L 529.858361 296.47339
L 530.608559 296.47339
L 530.608559 346.48661
z
" clip-path="url(#p81d66ea0a1)" style="fill: #303c49"/>
   </g>
   <g id="patch_22">
    <path d="M 535.876874 278.784677
L 478.361672 179.165424
L 478.794799 178.915358
L 536.310001 278.53461
z
" clip-path="url(#p81d66ea0a1)" style="fill: #bc693e"/>
   </g>
   <g id="patch_23">
    <path d="M 536.310001 278.53461
L 478.794799 178.915358
L 478.903081 178.852842
L 536.418283 278.472094
z
" clip-path="url(#p81d66ea0a1)" style="fill: #c9a629"/>
   </g>
   <g id="patch_24">
    <path d="M 536.418283 278.472094
L 478.903081 178.852842
L 479.769335 178.35271
L 537.284537 277.971962
z
" clip-path="url(#p81d66ea0a1)" style="fill: #78919c"/>
   </g>
   <g id="patch_25">
    <path d="M 537.284537 277.971962
L 479.769335 178.35271
L 480.419026 177.97761
L 537.934228 277.596863
z
" clip-path="url(#p81d66ea0a1)" style="fill: #303c49"/>
   </g>
   <g id="patch_26">
    <path d="M 521.679931 249.443596
L 496.673322 206.130877
L 514.431536 195.878167
L 539.438146 239.190886
z
" clip-path="url(#p81d66ea0a1)" style="fill: #ead5a3"/>
   </g>
   <g id="patch_27">
    <path d="M 539.438146 239.190886
L 514.431536 195.878167
L 515.081227 195.503068
L 540.087837 238.815787
z
" clip-path="url(#p81d66ea0a1)" style="fill: #303c49"/>
   </g>
   <g id="patch_28">
    <path d="M 476.746283 211.603117
L 377.12703 154.087915
L 377.377097 153.654788
L 476.996349 211.16999
z
" clip-path="url(#p81d66ea0a1)" style="fill: #bc693e"/>
   </g>
   <g id="patch_29">
    <path d="M 476.996349 211.16999
L 377.377097 153.654788
L 377.439613 153.546506
L 477.058865 211.061708
z
" clip-path="url(#p81d66ea0a1)" style="fill: #c9a629"/>
   </g>
   <g id="patch_30">
    <path d="M 477.058865 211.061708
L 377.439613 153.546506
L 377.939745 152.680252
L 477.558997 210.195454
z
" clip-path="url(#p81d66ea0a1)" style="fill: #78919c"/>
   </g>
   <g id="patch_31">
    <path d="M 477.558997 210.195454
L 377.939745 152.680252
L 378.314844 152.030561
L 477.934097 209.545763
z
" clip-path="url(#p81d66ea0a1)" style="fill: #303c49"/>
   </g>
   <g id="patch_32">
    <path d="M 449.78083 193.291467
L 406.468111 168.284857
L 416.720821 150.526643
L 460.03354 175.533252
z
" clip-path="url(#p81d66ea0a1)" style="fill: #ead5a3"/>
   </g>
   <g id="patch_33">
    <path d="M 460.03354 175.533252
L 416.720821 150.526643
L 417.09592 149.876952
L 460.408639 174.883562
z
" clip-path="url(#p81d66ea0a1)" style="fill: #303c49"/>
   </g>
   <g id="patch_34">
    <path d="M 404.411202 136.470101
L 289.380798 136.470101
L 289.380798 135.969969
L 404.411202 135.969969
z
" clip-path="url(#p81d66ea0a1)" style="fill: #bc693e"/>
   </g>
   <g id="patch_35">
    <path d="M 404.411202 135.969969
L 289.380798 135.969969
L 289.380798 135.844936
L 404.411202 135.844936
z
" clip-path="url(#p81d66ea0a1)" style="fill: #c9a629"/>
   </g>
   <g id="patch_36">
    <path d="M 404.411202 135.844936
L 289.380798 135.844936
L 289.380798 134.844671
L 404.411202 134.844671
z
" clip-path="url(#p81d66ea0a1)" style="fill: #78919c"/>
   </g>
   <g id="patch_37">
    <path d="M 404.411202 134.844671
L 289.380798 134.844671
L 289.380798 134.094473
L 404.411202 134.094473
z
" clip-path="url(#p81d66ea0a1)" style="fill: #303c49"/>
   </g>
   <g id="patch_38">
    <path d="M 371.90261 134.094473
L 321.88939 134.094473
L 321.88939 113.589053
L 371.90261 113.589053
z
" clip-path="url(#p81d66ea0a1)" style="fill: #ead5a3"/>
   </g>
   <g id="patch_39">
    <path d="M 371.90261 113.589053
L 321.88939 113.589053
L 321.88939 112.838855
L 371.90261 112.838855
z
" clip-path="url(#p81d66ea0a1)" style="fill: #303c49"/>
   </g>
   <g id="patch_40">
    <path d="M 316.66497 154.087915
L 217.045717 211.603117
L 216.795651 211.16999
L 316.414903 153.654788
z
" clip-path="url(#p81d66ea0a1)" style="fill: #bc693e"/>
   </g>
   <g id="patch_41">
    <path d="M 316.414903 153.654788
L 216.795651 211.16999
L 216.733135 211.061708
L 316.352387 153.546506
z
" clip-path="url(#p81d66ea0a1)" style="fill: #c9a629"/>
   </g>
   <g id="patch_42">
    <path d="M 316.352387 153.546506
L 216.733135 211.061708
L 216.233003 210.195454
L 315.852255 152.680252
z
" clip-path="url(#p81d66ea0a1)" style="fill: #78919c"/>
   </g>
   <g id="patch_43">
    <path d="M 315.852255 152.680252
L 216.233003 210.195454
L 215.857903 209.545763
L 315.477156 152.030561
z
" clip-path="url(#p81d66ea0a1)" style="fill: #303c49"/>
   </g>
   <g id="patch_44">
    <path d="M 287.323889 168.284857
L 244.01117 193.291467
L 233.75846 175.533252
L 277.071179 150.526643
z
" clip-path="url(#p81d66ea0a1)" style="fill: #ead5a3"/>
   </g>
   <g id="patch_45">
    <path d="M 277.071179 150.526643
L 233.75846 175.533252
L 233.383361 174.883562
L 276.69608 149.876952
z
" clip-path="url(#p81d66ea0a1)" style="fill: #303c49"/>
   </g>
   <g id="patch_46">
    <path d="M 215.430328 179.165424
L 157.915126 278.784677
L 157.481999 278.53461
L 214.997201 178.915358
z
" clip-path="url(#p81d66ea0a1)" style="fill: #bc693e"/>
   </g>
   <g id="patch_47">
    <path d="M 214.997201 178.915358
L 157.481999 278.53461
L 157.373717 278.472094
L 214.888919 178.852842
z
" clip-path="url(#p81d66ea0a1)" style="fill: #c9a629"/>
   </g>
   <g id="patch_48">
    <path d="M 214.888919 178.852842
L 157.373717 278.472094
L 156.507463 277.971962
L 214.022665 178.35271
z
" clip-path="url(#p81d66ea0a1)" style="fill: #78919c"/>
   </g>
   <g id="patch_49">
    <path d="M 214.022665 178.35271
L 156.507463 277.971962
L 155.857772 277.596863
L 213.372974 177.97761
z
" clip-path="url(#p81d66ea0a1)" style="fill: #303c49"/>
   </g>
   <g id="patch_50">
    <path d="M 197.118678 206.130877
L 172.112069 249.443596
L 154.353854 239.190886
L 179.360464 195.878167
z
" clip-path="url(#p81d66ea0a1)" style="fill: #ead5a3"/>
   </g>
   <g id="patch_51">
    <path d="M 179.360464 195.878167
L 154.353854 239.190886
L 153.704163 238.815787
L 178.710773 195.503068
z
" clip-path="url(#p81d66ea0a1)" style="fill: #303c49"/>
   </g>
   <g id="patch_52">
    <path d="M 186.814687 263.964798
L 186.814687 378.995202
L 186.314555 378.995202
L 186.314555 263.964798
z
" clip-path="url(#p81d66ea0a1)" style="fill: #bc693e"/>
   </g>
   <g id="patch_53">
    <path d="M 186.314555 263.964798
L 186.314555 378.995202
L 186.189522 378.995202
L 186.189522 263.964798
z
" clip-path="url(#p81d66ea0a1)" style="fill: #c9a629"/>
   </g>
   <g id="patch_54">
    <path d="M 186.189522 263.964798
L 186.189522 378.995202
L 185.189257 378.995202
L 185.189257 263.964798
z
" clip-path="url(#p81d66ea0a1)" style="fill: #78919c"/>
   </g>
   <g id="patch_55">
    <path d="M 185.189257 263.964798
L 185.189257 378.995202
L 184.439059 378.995202
L 184.439059 263.964798
z
" clip-path="url(#p81d66ea0a1)" style="fill: #303c49"/>
   </g>
   <g id="patch_56">
    <path d="M 184.439059 296.47339
L 184.439059 346.48661
L 163.933639 346.48661
L 163.933639 296.47339
z
" clip-path="url(#p81d66ea0a1)" style="fill: #ead5a3"/>
   </g>
   <g id="patch_57">
    <path d="M 163.933639 296.47339
L 163.933639 346.48661
L 163.183441 346.48661
L 163.183441 296.47339
z
" clip-path="url(#p81d66ea0a1)" style="fill: #303c49"/>
   </g>
   <g id="patch_58">
    <path d="M 157.915126 364.175323
L 215.430328 463.794576
L 214.997201 464.044642
L 157.481999 364.42539
z
" clip-path="url(#p81d66ea0a1)" style="fill: #bc693e"/>
   </g>
   <g id="patch_59">
    <path d="M 157.481999 364.42539
L 214.997201 464.044642
L 214.888919 464.107158
L 157.373717 364.487906
z
" clip-path="url(#p81d66ea0a1)" style="fill: #c9a629"/>
   </g>
   <g id="patch_60">
    <path d="M 157.373717 364.487906
L 214.888919 464.107158
L 214.022665 464.60729
L 156.507463 364.988038
z
" clip-path="url(#p81d66ea0a1)" style="fill: #78919c"/>
   </g>
   <g id="patch_61">
    <path d="M 156.507463 364.988038
L 214.022665 464.60729
L 213.372974 464.98239
L 155.857772 365.363137
z
" clip-path="url(#p81d66ea0a1)" style="fill: #303c49"/>
   </g>
   <g id="patch_62">
    <path d="M 172.112069 393.516404
L 197.118678 436.829123
L 179.360464 447.081833
L 154.353854 403.769114
z
" clip-path="url(#p81d66ea0a1)" style="fill: #ead5a3"/>
   </g>
   <g id="patch_63">
    <path d="M 154.353854 403.769114
L 179.360464 447.081833
L 178.710773 447.456932
L 153.704163 404.144213
z
" clip-path="url(#p81d66ea0a1)" style="fill: #303c49"/>
   </g>
   <g id="patch_64">
    <path d="M 217.045717 431.356883
L 316.66497 488.872085
L 316.414903 489.305212
L 216.795651 431.79001
z
" clip-path="url(#p81d66ea0a1)" style="fill: #bc693e"/>
   </g>
   <g id="patch_65">
    <path d="M 216.795651 431.79001
L 316.414903 489.305212
L 316.352387 489.413494
L 216.733135 431.898292
z
" clip-path="url(#p81d66ea0a1)" style="fill: #c9a629"/>
   </g>
   <g id="patch_66">
    <path d="M 216.733135 431.898292
L 316.352387 489.413494
L 315.852255 490.279748
L 216.233003 432.764546
z
" clip-path="url(#p81d66ea0a1)" style="fill: #78919c"/>
   </g>
   <g id="patch_67">
    <path d="M 216.233003 432.764546
L 315.852255 490.279748
L 315.477156 490.929439
L 215.857903 433.414237
z
" clip-path="url(#p81d66ea0a1)" style="fill: #303c49"/>
   </g>
   <g id="patch_68">
    <path d="M 244.01117 449.668533
L 287.323889 474.675143
L 277.071179 492.433357
L 233.75846 467.426748
z
" clip-path="url(#p81d66ea0a1)" style="fill: #ead5a3"/>
   </g>
   <g id="patch_69">
    <path d="M 233.75846 467.426748
L 277.071179 492.433357
L 276.69608 493.083048
L 233.383361 468.076438
z
" clip-path="url(#p81d66ea0a1)" style="fill: #303c49"/>
   </g>
   <g id="patch_70">
    <path d="M 289.380798 506.489899
L 404.411202 506.489899
L 404.411202 506.990031
L 289.380798 506.990031
z
" clip-path="url(#p81d66ea0a1)" style="fill: #bc693e"/>
   </g>
   <g id="patch_71">
    <path d="M 289.380798 506.990031
L 404.411202 506.990031
L 404.411202 507.115064
L 289.380798 507.115064
z
" clip-path="url(#p81d66ea0a1)" style="fill: #c9a629"/>
   </g>
   <g id="patch_72">
    <path d="M 289.380798 507.115064
L 404.411202 507.115064
L 404.411202 508.115329
L 289.380798 508.115329
z
" clip-path="url(#p81d66ea0a1)" style="fill: #78919c"/>
   </g>
   <g id="patch_73">
    <path d="M 289.380798 508.115329
L 404.411202 508.115329
L 404.411202 508.865527
L 289.380798 508.865527
z
" clip-path="url(#p81d66ea0a1)" style="fill: #303c49"/>
   </g>
   <g id="patch_74">
    <path d="M 321.88939 508.865527
L 371.90261 508.865527
L 371.90261 529.370947
L 321.88939 529.370947
z
" clip-path="url(#p81d66ea0a1)" style="fill: #ead5a3"/>
   </g>
   <g id="patch_75">
    <path d="M 321.88939 529.370947
L 371.90261 529.370947
L 371.90261 530.121145
L 321.88939 530.121145
z
" clip-path="url(#p81d66ea0a1)" style="fill: #303c49"/>
   </g>
   <g id="patch_76">
    <path d="M 377.12703 488.872085
L 476.746283 431.356883
L 476.996349 431.79001
L 377.377097 489.305212
z
" clip-path="url(#p81d66ea0a1)" style="fill: #bc693e"/>
   </g>
   <g id="patch_77">
    <path d="M 377.377097 489.305212
L 476.996349 431.79001
L 477.058865 431.898292
L 377.439613 489.413494
z
" clip-path="url(#p81d66ea0a1)" style="fill: #c9a629"/>
   </g>
   <g id="patch_78">
    <path d="M 377.439613 489.413494
L 477.058865 431.898292
L 477.558997 432.764546
L 377.939745 490.279748
z
" clip-path="url(#p81d66ea0a1)" style="fill: #78919c"/>
   </g>
   <g id="patch_79">
    <path d="M 377.939745 490.279748
L 477.558997 432.764546
L 477.934097 433.414237
L 378.314844 490.929439
z
" clip-path="url(#p81d66ea0a1)" style="fill: #303c49"/>
   </g>
   <g id="patch_80">
    <path d="M 406.468111 474.675143
L 449.78083 449.668533
L 460.03354 467.426748
L 416.720821 492.433357
z
" clip-path="url(#p81d66ea0a1)" style="fill: #ead5a3"/>
   </g>
   <g id="patch_81">
    <path d="M 416.720821 492.433357
L 460.03354 467.426748
L 460.408639 468.076438
L 417.09592 493.083048
z
" clip-path="url(#p81d66ea0a1)" style="fill: #303c49"/>
   </g>
   <g id="patch_82">
    <path d="M 478.361672 463.794576
L 535.876874 364.175323
L 536.310001 364.42539
L 478.794799 464.044642
z
" clip-path="url(#p81d66ea0a1)" style="fill: #bc693e"/>
   </g>
   <g id="patch_83">
    <path d="M 478.794799 464.044642
L 536.310001 364.42539
L 536.418283 364.487906
L 478.903081 464.107158
z
" clip-path="url(#p81d66ea0a1)" style="fill: #c9a629"/>
   </g>
   <g id="patch_84">
    <path d="M 478.903081 464.107158
L 536.418283 364.487906
L 537.284537 364.988038
L 479.769335 464.60729
z
" clip-path="url(#p81d66ea0a1)" style="fill: #78919c"/>
   </g>
   <g id="patch_85">
    <path d="M 479.769335 464.60729
L 537.284537 364.988038
L 537.934228 365.363137
L 480.419026 464.98239
z
" clip-path="url(#p81d66ea0a1)" style="fill: #303c49"/>
   </g>
   <g id="patch_86">
    <path d="M 496.673322 436.829123
L 521.679931 393.516404
L 539.438146 403.769114
L 514.431536 447.081833
z
" clip-path="url(#p81d66ea0a1)" style="fill: #ead5a3"/>
   </g>
   <g id="patch_87">
    <path d="M 514.431536 447.081833
L 539.438146 403.769114
L 540.087837 404.144213
L 515.081227 447.456932
z
" clip-path="url(#p81d66ea0a1)" style="fill: #303c49"/>
   </g>
   <g id="patch_88">
    <path d="M 530.608559 331.482644
L 530.608559 311.477356
L 559.295642 311.477356
L 559.350838 312.727687
L 559.398662 313.978017
L 559.43912 315.228348
L 559.472216 316.478678
L 559.497954 317.729009
L 559.516337 318.979339
L 559.527366 320.22967
L 559.531042 321.48
L 559.527366 322.73033
L 559.516337 323.980661
L 559.497954 325.230991
L 559.472216 326.481322
L 559.43912 327.731652
L 559.398662 328.981983
L 559.350838 330.232313
L 559.295642 331.482644
z
" clip-path="url(#p81d66ea0a1)" style="fill: #94a8be; stroke: #53697e; stroke-width: 0.35; stroke-linejoin: miter"/>
   </g>
   <g id="patch_89">
    <path d="M 532.585854 225.821971
L 522.58321 208.496884
L 525.838164 206.617635
L 526.51113 207.672856
L 527.177712 208.731761
L 527.837915 209.79435
L 528.491743 210.86062
L 529.139198 211.930569
L 529.780283 213.004196
L 530.414999 214.081499
L 531.043348 215.162479
L 531.665329 216.247135
L 532.280944 217.335467
L 532.890189 218.427477
L 533.493065 219.523164
L 534.089567 220.62253
L 534.679695 221.725577
L 535.263443 222.832307
L 535.840808 223.942722
z
" clip-path="url(#p81d66ea0a1)" style="fill: #94a8be; stroke: #53697e; stroke-width: 0.35; stroke-linejoin: miter"/>
   </g>
   <g id="patch_90">
    <path d="M 447.414823 167.381579
L 430.089736 157.378935
L 444.433278 132.535192
L 445.543693 133.112557
L 446.650423 133.696305
L 447.75347 134.286433
L 448.852836 134.882935
L 449.948523 135.485811
L 451.040533 136.095056
L 452.128865 136.710671
L 453.213521 137.332652
L 454.294501 137.961001
L 455.371804 138.595717
L 456.445431 139.236802
L 457.51538 139.884257
L 458.58165 140.538085
L 459.644239 141.198288
L 460.703144 141.86487
L 461.758365 142.537836
z
" clip-path="url(#p81d66ea0a1)" style="fill: #94a8be; stroke: #53697e; stroke-width: 0.35; stroke-linejoin: miter"/>
   </g>
   <g id="patch_91">
    <path d="M 356.898644 112.838855
L 336.893356 112.838855
L 336.893356 109.080358
L 338.143687 109.025162
L 339.394017 108.977338
L 340.644348 108.93688
L 341.894678 108.903784
L 343.145009 108.878046
L 344.395339 108.859663
L 345.64567 108.848634
L 346.896 108.844958
L 348.14633 108.848634
L 349.396661 108.859663
L 350.646991 108.878046
L 351.897322 108.903784
L 353.147652 108.93688
L 354.397983 108.977338
L 355.648313 109.025162
L 356.898644 109.080358
z
" clip-path="url(#p81d66ea0a1)" style="fill: #94a8be; stroke: #53697e; stroke-width: 0.35; stroke-linejoin: miter"/>
   </g>
   <g id="patch_92">
    <path d="M 263.702264 157.378935
L 246.377177 167.381579
L 232.033635 142.537836
L 233.088856 141.86487
L 234.147761 141.198288
L 235.21035 140.538085
L 236.27662 139.884257
L 237.346569 139.236802
L 238.420196 138.595717
L 239.497499 137.961001
L 240.578479 137.332652
L 241.663135 136.710671
L 242.751467 136.095056
L 243.843477 135.485811
L 244.939164 134.882935
L 246.03853 134.286433
L 247.141577 133.696305
L 248.248307 133.112557
L 249.358722 132.535192
z
" clip-path="url(#p81d66ea0a1)" style="fill: #94a8be; stroke: #53697e; stroke-width: 0.35; stroke-linejoin: miter"/>
   </g>
   <g id="patch_93">
    <path d="M 171.20879 208.496884
L 161.206146 225.821971
L 157.951192 223.942722
L 158.528557 222.832307
L 159.112305 221.725577
L 159.702433 220.62253
L 160.298935 219.523164
L 160.901811 218.427477
L 161.511056 217.335467
L 162.126671 216.247135
L 162.748652 215.162479
L 163.377001 214.081499
L 164.011717 213.004196
L 164.652802 211.930569
L 165.300257 210.86062
L 165.954085 209.79435
L 166.614288 208.731761
L 167.28087 207.672856
L 167.953836 206.617635
z
" clip-path="url(#p81d66ea0a1)" style="fill: #94a8be; stroke: #53697e; stroke-width: 0.35; stroke-linejoin: miter"/>
   </g>
   <g id="patch_94">
    <path d="M 163.183441 311.477356
L 163.183441 331.482644
L 134.496358 331.482644
L 134.441162 330.232313
L 134.393338 328.981983
L 134.35288 327.731652
L 134.319784 326.481322
L 134.294046 325.230991
L 134.275663 323.980661
L 134.264634 322.73033
L 134.260958 321.48
L 134.264634 320.22967
L 134.275663 318.979339
L 134.294046 317.729009
L 134.319784 316.478678
L 134.35288 315.228348
L 134.393338 313.978017
L 134.441162 312.727687
L 134.496358 311.477356
z
" clip-path="url(#p81d66ea0a1)" style="fill: #94a8be; stroke: #53697e; stroke-width: 0.35; stroke-linejoin: miter"/>
   </g>
   <g id="patch_95">
    <path d="M 161.206146 417.138029
L 171.20879 434.463116
L 167.953836 436.342365
L 167.28087 435.287144
L 166.614288 434.228239
L 165.954085 433.16565
L 165.300257 432.09938
L 164.652802 431.029431
L 164.011717 429.955804
L 163.377001 428.878501
L 162.748652 427.797521
L 162.126671 426.712865
L 161.511056 425.624533
L 160.901811 424.532523
L 160.298935 423.436836
L 159.702433 422.33747
L 159.112305 421.234423
L 158.528557 420.127693
L 157.951192 419.017278
z
" clip-path="url(#p81d66ea0a1)" style="fill: #94a8be; stroke: #53697e; stroke-width: 0.35; stroke-linejoin: miter"/>
   </g>
   <g id="patch_96">
    <path d="M 246.377177 475.578421
L 263.702264 485.581065
L 249.358722 510.424808
L 248.248307 509.847443
L 247.141577 509.263695
L 246.03853 508.673567
L 244.939164 508.077065
L 243.843477 507.474189
L 242.751467 506.864944
L 241.663135 506.249329
L 240.578479 505.627348
L 239.497499 504.998999
L 238.420196 504.364283
L 237.346569 503.723198
L 236.27662 503.075743
L 235.21035 502.421915
L 234.147761 501.761712
L 233.088856 501.09513
L 232.033635 500.422164
z
" clip-path="url(#p81d66ea0a1)" style="fill: #94a8be; stroke: #53697e; stroke-width: 0.35; stroke-linejoin: miter"/>
   </g>
   <g id="patch_97">
    <path d="M 336.893356 530.121145
L 356.898644 530.121145
L 356.898644 533.879642
L 355.648313 533.934838
L 354.397983 533.982662
L 353.147652 534.02312
L 351.897322 534.056216
L 350.646991 534.081954
L 349.396661 534.100337
L 348.14633 534.111366
L 346.896 534.115042
L 345.64567 534.111366
L 344.395339 534.100337
L 343.145009 534.081954
L 341.894678 534.056216
L 340.644348 534.02312
L 339.394017 533.982662
L 338.143687 533.934838
L 336.893356 533.879642
z
" clip-path="url(#p81d66ea0a1)" style="fill: #94a8be; stroke: #53697e; stroke-width: 0.35; stroke-linejoin: miter"/>
   </g>
   <g id="patch_98">
    <path d="M 430.089736 485.581065
L 447.414823 475.578421
L 461.758365 500.422164
L 460.703144 501.09513
L 459.644239 501.761712
L 458.58165 502.421915
L 457.51538 503.075743
L 456.445431 503.723198
L 455.371804 504.364283
L 454.294501 504.998999
L 453.213521 505.627348
L 452.128865 506.249329
L 451.040533 506.864944
L 449.948523 507.474189
L 448.852836 508.077065
L 447.75347 508.673567
L 446.650423 509.263695
L 445.543693 509.847443
L 444.433278 510.424808
z
" clip-path="url(#p81d66ea0a1)" style="fill: #94a8be; stroke: #53697e; stroke-width: 0.35; stroke-linejoin: miter"/>
   </g>
   <g id="patch_99">
    <path d="M 522.58321 434.463116
L 532.585854 417.138029
L 535.840808 419.017278
L 535.263443 420.127693
L 534.679695 421.234423
L 534.089567 422.33747
L 533.493065 423.436836
L 532.890189 424.532523
L 532.280944 425.624533
L 531.665329 426.712865
L 531.043348 427.797521
L 530.414999 428.878501
L 529.780283 429.955804
L 529.139198 431.029431
L 528.491743 432.09938
L 527.837915 433.16565
L 527.177712 434.228239
L 526.51113 435.287144
L 525.838164 436.342365
z
" clip-path="url(#p81d66ea0a1)" style="fill: #94a8be; stroke: #53697e; stroke-width: 0.35; stroke-linejoin: miter"/>
   </g>
   <g id="patch_100">
    <path d="M 519.605651 337.48423
C 520.932017 337.48423 522.204237 336.957259 523.14212 336.019377
C 524.080002 335.081494 524.606973 333.809274 524.606973 332.482908
C 524.606973 331.156542 524.080002 329.884322 523.14212 328.94644
C 522.204237 328.008557 520.932017 327.481586 519.605651 327.481586
C 518.279285 327.481586 517.007065 328.008557 516.069182 328.94644
C 515.1313 329.884322 514.604329 331.156542 514.604329 332.482908
C 514.604329 333.809274 515.1313 335.081494 516.069182 336.019377
C 517.007065 336.957259 518.279285 337.48423 519.605651 337.48423
z
" clip-path="url(#p81d66ea0a1)" style="fill: #8399a5; stroke: #38434d; stroke-width: 0.35; stroke-linejoin: miter"/>
   </g>
   <g id="patch_101">
    <path d="M 519.605651 336.934085
C 520.786117 336.934085 521.918393 336.465081 522.753108 335.630365
C 523.587823 334.79565 524.056827 333.663374 524.056827 332.482908
C 524.056827 331.302442 523.587823 330.170167 522.753108 329.335451
C 521.918393 328.500736 520.786117 328.031732 519.605651 328.031732
C 518.425185 328.031732 517.292909 328.500736 516.458194 329.335451
C 515.623478 330.170167 515.154474 331.302442 515.154474 332.482908
C 515.154474 333.663374 515.623478 334.79565 516.458194 335.630365
C 517.292909 336.465081 518.425185 336.934085 519.605651 336.934085
z
" clip-path="url(#p81d66ea0a1)" style="fill: #267eb7"/>
   </g>
   <g id="patch_102">
    <path d="M 519.605651 315.478414
C 520.932017 315.478414 522.204237 314.951443 523.14212 314.01356
C 524.080002 313.075678 524.606973 311.803458 524.606973 310.477092
C 524.606973 309.150726 524.080002 307.878506 523.14212 306.940623
C 522.204237 306.002741 520.932017 305.47577 519.605651 305.47577
C 518.279285 305.47577 517.007065 306.002741 516.069182 306.940623
C 515.1313 307.878506 514.604329 309.150726 514.604329 310.477092
C 514.604329 311.803458 515.1313 313.075678 516.069182 314.01356
C 517.007065 314.951443 518.279285 315.478414 519.605651 315.478414
z
" clip-path="url(#p81d66ea0a1)" style="fill: #8399a5; stroke: #38434d; stroke-width: 0.35; stroke-linejoin: miter"/>
   </g>
   <g id="patch_103">
    <path d="M 519.605651 314.928268
C 520.786117 314.928268 521.918393 314.459264 522.753108 313.624549
C 523.587823 312.789833 524.056827 311.657558 524.056827 310.477092
C 524.056827 309.296626 523.587823 308.16435 522.753108 307.329635
C 521.918393 306.494919 520.786117 306.025915 519.605651 306.025915
C 518.425185 306.025915 517.292909 306.494919 516.458194 307.329635
C 515.623478 308.16435 515.154474 309.296626 515.154474 310.477092
C 515.154474 311.657558 515.623478 312.789833 516.458194 313.624549
C 517.292909 314.459264 518.425185 314.928268 519.605651 314.928268
z
" clip-path="url(#p81d66ea0a1)" style="fill: #ce6058"/>
   </g>
   <g id="patch_104">
    <path d="M 523.557188 237.191001
C 524.883554 237.191001 526.155774 236.664031 527.093657 235.726148
C 528.031539 234.788266 528.55851 233.516046 528.55851 232.18968
C 528.55851 230.863313 528.031539 229.591093 527.093657 228.653211
C 526.155774 227.715328 524.883554 227.188358 523.557188 227.188358
C 522.230822 227.188358 520.958602 227.715328 520.020719 228.653211
C 519.082837 229.591093 518.555866 230.863313 518.555866 232.18968
C 518.555866 233.516046 519.082837 234.788266 520.020719 235.726148
C 520.958602 236.664031 522.230822 237.191001 523.557188 237.191001
z
" clip-path="url(#p81d66ea0a1)" style="fill: #8399a5; stroke: #38434d; stroke-width: 0.35; stroke-linejoin: miter"/>
   </g>
   <g id="patch_105">
    <path d="M 523.557188 236.640856
C 524.737654 236.640856 525.86993 236.171852 526.704645 235.337137
C 527.539361 234.502421 528.008365 233.370145 528.008365 232.18968
C 528.008365 231.009214 527.539361 229.876938 526.704645 229.042222
C 525.86993 228.207507 524.737654 227.738503 523.557188 227.738503
C 522.376722 227.738503 521.244446 228.207507 520.409731 229.042222
C 519.575016 229.876938 519.106012 231.009214 519.106012 232.18968
C 519.106012 233.370145 519.575016 234.502421 520.409731 235.337137
C 521.244446 236.171852 522.376722 236.640856 523.557188 236.640856
z
" clip-path="url(#p81d66ea0a1)" style="fill: #267eb7"/>
   </g>
   <g id="patch_106">
    <path d="M 512.55428 218.133405
C 513.880646 218.133405 515.152866 217.606435 516.090748 216.668552
C 517.028631 215.73067 517.555602 214.45845 517.555602 213.132083
C 517.555602 211.805717 517.028631 210.533497 516.090748 209.595615
C 515.152866 208.657732 513.880646 208.130762 512.55428 208.130762
C 511.227914 208.130762 509.955694 208.657732 509.017811 209.595615
C 508.079929 210.533497 507.552958 211.805717 507.552958 213.132083
C 507.552958 214.45845 508.079929 215.73067 509.017811 216.668552
C 509.955694 217.606435 511.227914 218.133405 512.55428 218.133405
z
" clip-path="url(#p81d66ea0a1)" style="fill: #8399a5; stroke: #38434d; stroke-width: 0.35; stroke-linejoin: miter"/>
   </g>
   <g id="patch_107">
    <path d="M 512.55428 217.58326
C 513.734746 217.58326 514.867022 217.114256 515.701737 216.279541
C 516.536452 215.444825 517.005456 214.312549 517.005456 213.132083
C 517.005456 211.951618 516.536452 210.819342 515.701737 209.984626
C 514.867022 209.149911 513.734746 208.680907 512.55428 208.680907
C 511.373814 208.680907 510.241538 209.149911 509.406823 209.984626
C 508.572107 210.819342 508.103103 211.951618 508.103103 213.132083
C 508.103103 214.312549 508.572107 215.444825 509.406823 216.279541
C 510.241538 217.114256 511.373814 217.58326 512.55428 217.58326
z
" clip-path="url(#p81d66ea0a1)" style="fill: #ce6058"/>
   </g>
   <g id="patch_108">
    <path d="M 442.779623 182.411831
C 444.10599 182.411831 445.37821 181.88486 446.316092 180.946978
C 447.253975 180.009095 447.780945 178.736875 447.780945 177.410509
C 447.780945 176.084143 447.253975 174.811923 446.316092 173.87404
C 445.37821 172.936158 444.10599 172.409187 442.779623 172.409187
C 441.453257 172.409187 440.181037 172.936158 439.243155 173.87404
C 438.305272 174.811923 437.778302 176.084143 437.778302 177.410509
C 437.778302 178.736875 438.305272 180.009095 439.243155 180.946978
C 440.181037 181.88486 441.453257 182.411831 442.779623 182.411831
z
" clip-path="url(#p81d66ea0a1)" style="fill: #8399a5; stroke: #38434d; stroke-width: 0.35; stroke-linejoin: miter"/>
   </g>
   <g id="patch_109">
    <path d="M 442.779623 181.861685
C 443.960089 181.861685 445.092365 181.392681 445.927081 180.557966
C 446.761796 179.723251 447.2308 178.590975 447.2308 177.410509
C 447.2308 176.230043 446.761796 175.097767 445.927081 174.263052
C 445.092365 173.428336 443.960089 172.959332 442.779623 172.959332
C 441.599158 172.959332 440.466882 173.428336 439.632166 174.263052
C 438.797451 175.097767 438.328447 176.230043 438.328447 177.410509
C 438.328447 178.590975 438.797451 179.723251 439.632166 180.557966
C 440.466882 181.392681 441.599158 181.861685 442.779623 181.861685
z
" clip-path="url(#p81d66ea0a1)" style="fill: #267eb7"/>
   </g>
   <g id="patch_110">
    <path d="M 423.722027 171.408923
C 425.048393 171.408923 426.320614 170.881952 427.258496 169.944069
C 428.196379 169.006187 428.723349 167.733967 428.723349 166.407601
C 428.723349 165.081235 428.196379 163.809015 427.258496 162.871132
C 426.320614 161.93325 425.048393 161.406279 423.722027 161.406279
C 422.395661 161.406279 421.123441 161.93325 420.185559 162.871132
C 419.247676 163.809015 418.720706 165.081235 418.720706 166.407601
C 418.720706 167.733967 419.247676 169.006187 420.185559 169.944069
C 421.123441 170.881952 422.395661 171.408923 423.722027 171.408923
z
" clip-path="url(#p81d66ea0a1)" style="fill: #8399a5; stroke: #38434d; stroke-width: 0.35; stroke-linejoin: miter"/>
   </g>
   <g id="patch_111">
    <path d="M 423.722027 170.858777
C 424.902493 170.858777 426.034769 170.389773 426.869485 169.555058
C 427.7042 168.720342 428.173204 167.588067 428.173204 166.407601
C 428.173204 165.227135 427.7042 164.094859 426.869485 163.260144
C 426.034769 162.425428 424.902493 161.956424 423.722027 161.956424
C 422.541562 161.956424 421.409286 162.425428 420.57457 163.260144
C 419.739855 164.094859 419.270851 165.227135 419.270851 166.407601
C 419.270851 167.588067 419.739855 168.720342 420.57457 169.555058
C 421.409286 170.389773 422.541562 170.858777 423.722027 170.858777
z
" clip-path="url(#p81d66ea0a1)" style="fill: #ce6058"/>
   </g>
   <g id="patch_112">
    <path d="M 357.898908 128.843085
C 359.225274 128.843085 360.497494 128.316114 361.435377 127.378232
C 362.373259 126.440349 362.90023 125.168129 362.90023 123.841763
C 362.90023 122.515397 362.373259 121.243177 361.435377 120.305294
C 360.497494 119.367412 359.225274 118.840441 357.898908 118.840441
C 356.572542 118.840441 355.300322 119.367412 354.36244 120.305294
C 353.424557 121.243177 352.897586 122.515397 352.897586 123.841763
C 352.897586 125.168129 353.424557 126.440349 354.36244 127.378232
C 355.300322 128.316114 356.572542 128.843085 357.898908 128.843085
z
" clip-path="url(#p81d66ea0a1)" style="fill: #8399a5; stroke: #38434d; stroke-width: 0.35; stroke-linejoin: miter"/>
   </g>
   <g id="patch_113">
    <path d="M 357.898908 128.29294
C 359.079374 128.29294 360.21165 127.823936 361.046365 126.98922
C 361.881081 126.154505 362.350085 125.022229 362.350085 123.841763
C 362.350085 122.661297 361.881081 121.529021 361.046365 120.694306
C 360.21165 119.859591 359.079374 119.390587 357.898908 119.390587
C 356.718442 119.390587 355.586167 119.859591 354.751451 120.694306
C 353.916736 121.529021 353.447732 122.661297 353.447732 123.841763
C 353.447732 125.022229 353.916736 126.154505 354.751451 126.98922
C 355.586167 127.823936 356.718442 128.29294 357.898908 128.29294
z
" clip-path="url(#p81d66ea0a1)" style="fill: #267eb7"/>
   </g>
   <g id="patch_114">
    <path d="M 335.893092 128.843085
C 337.219458 128.843085 338.491678 128.316114 339.42956 127.378232
C 340.367443 126.440349 340.894414 125.168129 340.894414 123.841763
C 340.894414 122.515397 340.367443 121.243177 339.42956 120.305294
C 338.491678 119.367412 337.219458 118.840441 335.893092 118.840441
C 334.566726 118.840441 333.294506 119.367412 332.356623 120.305294
C 331.418741 121.243177 330.89177 122.515397 330.89177 123.841763
C 330.89177 125.168129 331.418741 126.440349 332.356623 127.378232
C 333.294506 128.316114 334.566726 128.843085 335.893092 128.843085
z
" clip-path="url(#p81d66ea0a1)" style="fill: #8399a5; stroke: #38434d; stroke-width: 0.35; stroke-linejoin: miter"/>
   </g>
   <g id="patch_115">
    <path d="M 335.893092 128.29294
C 337.073558 128.29294 338.205833 127.823936 339.040549 126.98922
C 339.875264 126.154505 340.344268 125.022229 340.344268 123.841763
C 340.344268 122.661297 339.875264 121.529021 339.040549 120.694306
C 338.205833 119.859591 337.073558 119.390587 335.893092 119.390587
C 334.712626 119.390587 333.58035 119.859591 332.745635 120.694306
C 331.910919 121.529021 331.441915 122.661297 331.441915 123.841763
C 331.441915 125.022229 331.910919 126.154505 332.745635 126.98922
C 333.58035 127.823936 334.712626 128.29294 335.893092 128.29294
z
" clip-path="url(#p81d66ea0a1)" style="fill: #ce6058"/>
   </g>
   <g id="patch_116">
    <path d="M 270.069973 171.408923
C 271.396339 171.408923 272.668559 170.881952 273.606441 169.944069
C 274.544324 169.006187 275.071294 167.733967 275.071294 166.407601
C 275.071294 165.081235 274.544324 163.809015 273.606441 162.871132
C 272.668559 161.93325 271.396339 161.406279 270.069973 161.406279
C 268.743607 161.406279 267.471386 161.93325 266.533504 162.871132
C 265.595621 163.809015 265.068651 165.081235 265.068651 166.407601
C 265.068651 167.733967 265.595621 169.006187 266.533504 169.944069
C 267.471386 170.881952 268.743607 171.408923 270.069973 171.408923
z
" clip-path="url(#p81d66ea0a1)" style="fill: #8399a5; stroke: #38434d; stroke-width: 0.35; stroke-linejoin: miter"/>
   </g>
   <g id="patch_117">
    <path d="M 270.069973 170.858777
C 271.250438 170.858777 272.382714 170.389773 273.21743 169.555058
C 274.052145 168.720342 274.521149 167.588067 274.521149 166.407601
C 274.521149 165.227135 274.052145 164.094859 273.21743 163.260144
C 272.382714 162.425428 271.250438 161.956424 270.069973 161.956424
C 268.889507 161.956424 267.757231 162.425428 266.922515 163.260144
C 266.0878 164.094859 265.618796 165.227135 265.618796 166.407601
C 265.618796 167.588067 266.0878 168.720342 266.922515 169.555058
C 267.757231 170.389773 268.889507 170.858777 270.069973 170.858777
z
" clip-path="url(#p81d66ea0a1)" style="fill: #267eb7"/>
   </g>
   <g id="patch_118">
    <path d="M 251.012377 182.411831
C 252.338743 182.411831 253.610963 181.88486 254.548845 180.946978
C 255.486728 180.009095 256.013698 178.736875 256.013698 177.410509
C 256.013698 176.084143 255.486728 174.811923 254.548845 173.87404
C 253.610963 172.936158 252.338743 172.409187 251.012377 172.409187
C 249.68601 172.409187 248.41379 172.936158 247.475908 173.87404
C 246.538025 174.811923 246.011055 176.084143 246.011055 177.410509
C 246.011055 178.736875 246.538025 180.009095 247.475908 180.946978
C 248.41379 181.88486 249.68601 182.411831 251.012377 182.411831
z
" clip-path="url(#p81d66ea0a1)" style="fill: #8399a5; stroke: #38434d; stroke-width: 0.35; stroke-linejoin: miter"/>
   </g>
   <g id="patch_119">
    <path d="M 251.012377 181.861685
C 252.192842 181.861685 253.325118 181.392681 254.159834 180.557966
C 254.994549 179.723251 255.463553 178.590975 255.463553 177.410509
C 255.463553 176.230043 254.994549 175.097767 254.159834 174.263052
C 253.325118 173.428336 252.192842 172.959332 251.012377 172.959332
C 249.831911 172.959332 248.699635 173.428336 247.864919 174.263052
C 247.030204 175.097767 246.5612 176.230043 246.5612 177.410509
C 246.5612 178.590975 247.030204 179.723251 247.864919 180.557966
C 248.699635 181.392681 249.831911 181.861685 251.012377 181.861685
z
" clip-path="url(#p81d66ea0a1)" style="fill: #ce6058"/>
   </g>
   <g id="patch_120">
    <path d="M 181.23772 218.133405
C 182.564086 218.133405 183.836306 217.606435 184.774189 216.668552
C 185.712071 215.73067 186.239042 214.45845 186.239042 213.132083
C 186.239042 211.805717 185.712071 210.533497 184.774189 209.595615
C 183.836306 208.657732 182.564086 208.130762 181.23772 208.130762
C 179.911354 208.130762 178.639134 208.657732 177.701252 209.595615
C 176.763369 210.533497 176.236398 211.805717 176.236398 213.132083
C 176.236398 214.45845 176.763369 215.73067 177.701252 216.668552
C 178.639134 217.606435 179.911354 218.133405 181.23772 218.133405
z
" clip-path="url(#p81d66ea0a1)" style="fill: #8399a5; stroke: #38434d; stroke-width: 0.35; stroke-linejoin: miter"/>
   </g>
   <g id="patch_121">
    <path d="M 181.23772 217.58326
C 182.418186 217.58326 183.550462 217.114256 184.385177 216.279541
C 185.219893 215.444825 185.688897 214.312549 185.688897 213.132083
C 185.688897 211.951618 185.219893 210.819342 184.385177 209.984626
C 183.550462 209.149911 182.418186 208.680907 181.23772 208.680907
C 180.057254 208.680907 178.924978 209.149911 178.090263 209.984626
C 177.255548 210.819342 176.786544 211.951618 176.786544 213.132083
C 176.786544 214.312549 177.255548 215.444825 178.090263 216.279541
C 178.924978 217.114256 180.057254 217.58326 181.23772 217.58326
z
" clip-path="url(#p81d66ea0a1)" style="fill: #267eb7"/>
   </g>
   <g id="patch_122">
    <path d="M 170.234812 237.191001
C 171.561178 237.191001 172.833398 236.664031 173.771281 235.726148
C 174.709163 234.788266 175.236134 233.516046 175.236134 232.18968
C 175.236134 230.863313 174.709163 229.591093 173.771281 228.653211
C 172.833398 227.715328 171.561178 227.188358 170.234812 227.188358
C 168.908446 227.188358 167.636226 227.715328 166.698343 228.653211
C 165.760461 229.591093 165.23349 230.863313 165.23349 232.18968
C 165.23349 233.516046 165.760461 234.788266 166.698343 235.726148
C 167.636226 236.664031 168.908446 237.191001 170.234812 237.191001
z
" clip-path="url(#p81d66ea0a1)" style="fill: #8399a5; stroke: #38434d; stroke-width: 0.35; stroke-linejoin: miter"/>
   </g>
   <g id="patch_123">
    <path d="M 170.234812 236.640856
C 171.415278 236.640856 172.547554 236.171852 173.382269 235.337137
C 174.216984 234.502421 174.685988 233.370145 174.685988 232.18968
C 174.685988 231.009214 174.216984 229.876938 173.382269 229.042222
C 172.547554 228.207507 171.415278 227.738503 170.234812 227.738503
C 169.054346 227.738503 167.92207 228.207507 167.087355 229.042222
C 166.252639 229.876938 165.783635 231.009214 165.783635 232.18968
C 165.783635 233.370145 166.252639 234.502421 167.087355 235.337137
C 167.92207 236.171852 169.054346 236.640856 170.234812 236.640856
z
" clip-path="url(#p81d66ea0a1)" style="fill: #ce6058"/>
   </g>
   <g id="patch_124">
    <path d="M 174.186349 315.478414
C 175.512715 315.478414 176.784935 314.951443 177.722818 314.01356
C 178.6607 313.075678 179.187671 311.803458 179.187671 310.477092
C 179.187671 309.150726 178.6607 307.878506 177.722818 306.940623
C 176.784935 306.002741 175.512715 305.47577 174.186349 305.47577
C 172.859983 305.47577 171.587763 306.002741 170.64988 306.940623
C 169.711998 307.878506 169.185027 309.150726 169.185027 310.477092
C 169.185027 311.803458 169.711998 313.075678 170.64988 314.01356
C 171.587763 314.951443 172.859983 315.478414 174.186349 315.478414
z
" clip-path="url(#p81d66ea0a1)" style="fill: #8399a5; stroke: #38434d; stroke-width: 0.35; stroke-linejoin: miter"/>
   </g>
   <g id="patch_125">
    <path d="M 174.186349 314.928268
C 175.366815 314.928268 176.499091 314.459264 177.333806 313.624549
C 178.168522 312.789833 178.637526 311.657558 178.637526 310.477092
C 178.637526 309.296626 178.168522 308.16435 177.333806 307.329635
C 176.499091 306.494919 175.366815 306.025915 174.186349 306.025915
C 173.005883 306.025915 171.873607 306.494919 171.038892 307.329635
C 170.204177 308.16435 169.735173 309.296626 169.735173 310.477092
C 169.735173 311.657558 170.204177 312.789833 171.038892 313.624549
C 171.873607 314.459264 173.005883 314.928268 174.186349 314.928268
z
" clip-path="url(#p81d66ea0a1)" style="fill: #267eb7"/>
   </g>
   <g id="patch_126">
    <path d="M 174.186349 337.48423
C 175.512715 337.48423 176.784935 336.957259 177.722818 336.019377
C 178.6607 335.081494 179.187671 333.809274 179.187671 332.482908
C 179.187671 331.156542 178.6607 329.884322 177.722818 328.94644
C 176.784935 328.008557 175.512715 327.481586 174.186349 327.481586
C 172.859983 327.481586 171.587763 328.008557 170.64988 328.94644
C 169.711998 329.884322 169.185027 331.156542 169.185027 332.482908
C 169.185027 333.809274 169.711998 335.081494 170.64988 336.019377
C 171.587763 336.957259 172.859983 337.48423 174.186349 337.48423
z
" clip-path="url(#p81d66ea0a1)" style="fill: #8399a5; stroke: #38434d; stroke-width: 0.35; stroke-linejoin: miter"/>
   </g>
   <g id="patch_127">
    <path d="M 174.186349 336.934085
C 175.366815 336.934085 176.499091 336.465081 177.333806 335.630365
C 178.168522 334.79565 178.637526 333.663374 178.637526 332.482908
C 178.637526 331.302442 178.168522 330.170167 177.333806 329.335451
C 176.499091 328.500736 175.366815 328.031732 174.186349 328.031732
C 173.005883 328.031732 171.873607 328.500736 171.038892 329.335451
C 170.204177 330.170167 169.735173 331.302442 169.735173 332.482908
C 169.735173 333.663374 170.204177 334.79565 171.038892 335.630365
C 171.873607 336.465081 173.005883 336.934085 174.186349 336.934085
z
" clip-path="url(#p81d66ea0a1)" style="fill: #ce6058"/>
   </g>
   <g id="patch_128">
    <path d="M 170.234812 415.771642
C 171.561178 415.771642 172.833398 415.244672 173.771281 414.306789
C 174.709163 413.368907 175.236134 412.096687 175.236134 410.77032
C 175.236134 409.443954 174.709163 408.171734 173.771281 407.233852
C 172.833398 406.295969 171.561178 405.768999 170.234812 405.768999
C 168.908446 405.768999 167.636226 406.295969 166.698343 407.233852
C 165.760461 408.171734 165.23349 409.443954 165.23349 410.77032
C 165.23349 412.096687 165.760461 413.368907 166.698343 414.306789
C 167.636226 415.244672 168.908446 415.771642 170.234812 415.771642
z
" clip-path="url(#p81d66ea0a1)" style="fill: #8399a5; stroke: #38434d; stroke-width: 0.35; stroke-linejoin: miter"/>
   </g>
   <g id="patch_129">
    <path d="M 170.234812 415.221497
C 171.415278 415.221497 172.547554 414.752493 173.382269 413.917778
C 174.216984 413.083062 174.685988 411.950786 174.685988 410.77032
C 174.685988 409.589855 174.216984 408.457579 173.382269 407.622863
C 172.547554 406.788148 171.415278 406.319144 170.234812 406.319144
C 169.054346 406.319144 167.92207 406.788148 167.087355 407.622863
C 166.252639 408.457579 165.783635 409.589855 165.783635 410.77032
C 165.783635 411.950786 166.252639 413.083062 167.087355 413.917778
C 167.92207 414.752493 169.054346 415.221497 170.234812 415.221497
z
" clip-path="url(#p81d66ea0a1)" style="fill: #267eb7"/>
   </g>
   <g id="patch_130">
    <path d="M 181.23772 434.829238
C 182.564086 434.829238 183.836306 434.302268 184.774189 433.364385
C 185.712071 432.426503 186.239042 431.154283 186.239042 429.827917
C 186.239042 428.50155 185.712071 427.22933 184.774189 426.291448
C 183.836306 425.353565 182.564086 424.826595 181.23772 424.826595
C 179.911354 424.826595 178.639134 425.353565 177.701252 426.291448
C 176.763369 427.22933 176.236398 428.50155 176.236398 429.827917
C 176.236398 431.154283 176.763369 432.426503 177.701252 433.364385
C 178.639134 434.302268 179.911354 434.829238 181.23772 434.829238
z
" clip-path="url(#p81d66ea0a1)" style="fill: #8399a5; stroke: #38434d; stroke-width: 0.35; stroke-linejoin: miter"/>
   </g>
   <g id="patch_131">
    <path d="M 181.23772 434.279093
C 182.418186 434.279093 183.550462 433.810089 184.385177 432.975374
C 185.219893 432.140658 185.688897 431.008382 185.688897 429.827917
C 185.688897 428.647451 185.219893 427.515175 184.385177 426.680459
C 183.550462 425.845744 182.418186 425.37674 181.23772 425.37674
C 180.057254 425.37674 178.924978 425.845744 178.090263 426.680459
C 177.255548 427.515175 176.786544 428.647451 176.786544 429.827917
C 176.786544 431.008382 177.255548 432.140658 178.090263 432.975374
C 178.924978 433.810089 180.057254 434.279093 181.23772 434.279093
z
" clip-path="url(#p81d66ea0a1)" style="fill: #ce6058"/>
   </g>
   <g id="patch_132">
    <path d="M 251.012377 470.550813
C 252.338743 470.550813 253.610963 470.023842 254.548845 469.08596
C 255.486728 468.148077 256.013698 466.875857 256.013698 465.549491
C 256.013698 464.223125 255.486728 462.950905 254.548845 462.013022
C 253.610963 461.07514 252.338743 460.548169 251.012377 460.548169
C 249.68601 460.548169 248.41379 461.07514 247.475908 462.013022
C 246.538025 462.950905 246.011055 464.223125 246.011055 465.549491
C 246.011055 466.875857 246.538025 468.148077 247.475908 469.08596
C 248.41379 470.023842 249.68601 470.550813 251.012377 470.550813
z
" clip-path="url(#p81d66ea0a1)" style="fill: #8399a5; stroke: #38434d; stroke-width: 0.35; stroke-linejoin: miter"/>
   </g>
   <g id="patch_133">
    <path d="M 251.012377 470.000668
C 252.192842 470.000668 253.325118 469.531664 254.159834 468.696948
C 254.994549 467.862233 255.463553 466.729957 255.463553 465.549491
C 255.463553 464.369025 254.994549 463.236749 254.159834 462.402034
C 253.325118 461.567319 252.192842 461.098315 251.012377 461.098315
C 249.831911 461.098315 248.699635 461.567319 247.864919 462.402034
C 247.030204 463.236749 246.5612 464.369025 246.5612 465.549491
C 246.5612 466.729957 247.030204 467.862233 247.864919 468.696948
C 248.699635 469.531664 249.831911 470.000668 251.012377 470.000668
z
" clip-path="url(#p81d66ea0a1)" style="fill: #267eb7"/>
   </g>
   <g id="patch_134">
    <path d="M 270.069973 481.553721
C 271.396339 481.553721 272.668559 481.02675 273.606441 480.088868
C 274.544324 479.150985 275.071294 477.878765 275.071294 476.552399
C 275.071294 475.226033 274.544324 473.953813 273.606441 473.015931
C 272.668559 472.078048 271.396339 471.551077 270.069973 471.551077
C 268.743607 471.551077 267.471386 472.078048 266.533504 473.015931
C 265.595621 473.953813 265.068651 475.226033 265.068651 476.552399
C 265.068651 477.878765 265.595621 479.150985 266.533504 480.088868
C 267.471386 481.02675 268.743607 481.553721 270.069973 481.553721
z
" clip-path="url(#p81d66ea0a1)" style="fill: #8399a5; stroke: #38434d; stroke-width: 0.35; stroke-linejoin: miter"/>
   </g>
   <g id="patch_135">
    <path d="M 270.069973 481.003576
C 271.250438 481.003576 272.382714 480.534572 273.21743 479.699856
C 274.052145 478.865141 274.521149 477.732865 274.521149 476.552399
C 274.521149 475.371933 274.052145 474.239658 273.21743 473.404942
C 272.382714 472.570227 271.250438 472.101223 270.069973 472.101223
C 268.889507 472.101223 267.757231 472.570227 266.922515 473.404942
C 266.0878 474.239658 265.618796 475.371933 265.618796 476.552399
C 265.618796 477.732865 266.0878 478.865141 266.922515 479.699856
C 267.757231 480.534572 268.889507 481.003576 270.069973 481.003576
z
" clip-path="url(#p81d66ea0a1)" style="fill: #ce6058"/>
   </g>
   <g id="patch_136">
    <path d="M 335.893092 524.119559
C 337.219458 524.119559 338.491678 523.592588 339.42956 522.654706
C 340.367443 521.716823 340.894414 520.444603 340.894414 519.118237
C 340.894414 517.791871 340.367443 516.519651 339.42956 515.581768
C 338.491678 514.643886 337.219458 514.116915 335.893092 514.116915
C 334.566726 514.116915 333.294506 514.643886 332.356623 515.581768
C 331.418741 516.519651 330.89177 517.791871 330.89177 519.118237
C 330.89177 520.444603 331.418741 521.716823 332.356623 522.654706
C 333.294506 523.592588 334.566726 524.119559 335.893092 524.119559
z
" clip-path="url(#p81d66ea0a1)" style="fill: #8399a5; stroke: #38434d; stroke-width: 0.35; stroke-linejoin: miter"/>
   </g>
   <g id="patch_137">
    <path d="M 335.893092 523.569413
C 337.073558 523.569413 338.205833 523.100409 339.040549 522.265694
C 339.875264 521.430979 340.344268 520.298703 340.344268 519.118237
C 340.344268 517.937771 339.875264 516.805495 339.040549 515.97078
C 338.205833 515.136064 337.073558 514.66706 335.893092 514.66706
C 334.712626 514.66706 333.58035 515.136064 332.745635 515.97078
C 331.910919 516.805495 331.441915 517.937771 331.441915 519.118237
C 331.441915 520.298703 331.910919 521.430979 332.745635 522.265694
C 333.58035 523.100409 334.712626 523.569413 335.893092 523.569413
z
" clip-path="url(#p81d66ea0a1)" style="fill: #267eb7"/>
   </g>
   <g id="patch_138">
    <path d="M 357.898908 524.119559
C 359.225274 524.119559 360.497494 523.592588 361.435377 522.654706
C 362.373259 521.716823 362.90023 520.444603 362.90023 519.118237
C 362.90023 517.791871 362.373259 516.519651 361.435377 515.581768
C 360.497494 514.643886 359.225274 514.116915 357.898908 514.116915
C 356.572542 514.116915 355.300322 514.643886 354.36244 515.581768
C 353.424557 516.519651 352.897586 517.791871 352.897586 519.118237
C 352.897586 520.444603 353.424557 521.716823 354.36244 522.654706
C 355.300322 523.592588 356.572542 524.119559 357.898908 524.119559
z
" clip-path="url(#p81d66ea0a1)" style="fill: #8399a5; stroke: #38434d; stroke-width: 0.35; stroke-linejoin: miter"/>
   </g>
   <g id="patch_139">
    <path d="M 357.898908 523.569413
C 359.079374 523.569413 360.21165 523.100409 361.046365 522.265694
C 361.881081 521.430979 362.350085 520.298703 362.350085 519.118237
C 362.350085 517.937771 361.881081 516.805495 361.046365 515.97078
C 360.21165 515.136064 359.079374 514.66706 357.898908 514.66706
C 356.718442 514.66706 355.586167 515.136064 354.751451 515.97078
C 353.916736 516.805495 353.447732 517.937771 353.447732 519.118237
C 353.447732 520.298703 353.916736 521.430979 354.751451 522.265694
C 355.586167 523.100409 356.718442 523.569413 357.898908 523.569413
z
" clip-path="url(#p81d66ea0a1)" style="fill: #ce6058"/>
   </g>
   <g id="patch_140">
    <path d="M 423.722027 481.553721
C 425.048393 481.553721 426.320614 481.02675 427.258496 480.088868
C 428.196379 479.150985 428.723349 477.878765 428.723349 476.552399
C 428.723349 475.226033 428.196379 473.953813 427.258496 473.015931
C 426.320614 472.078048 425.048393 471.551077 423.722027 471.551077
C 422.395661 471.551077 421.123441 472.078048 420.185559 473.015931
C 419.247676 473.953813 418.720706 475.226033 418.720706 476.552399
C 418.720706 477.878765 419.247676 479.150985 420.185559 480.088868
C 421.123441 481.02675 422.395661 481.553721 423.722027 481.553721
z
" clip-path="url(#p81d66ea0a1)" style="fill: #8399a5; stroke: #38434d; stroke-width: 0.35; stroke-linejoin: miter"/>
   </g>
   <g id="patch_141">
    <path d="M 423.722027 481.003576
C 424.902493 481.003576 426.034769 480.534572 426.869485 479.699856
C 427.7042 478.865141 428.173204 477.732865 428.173204 476.552399
C 428.173204 475.371933 427.7042 474.239658 426.869485 473.404942
C 426.034769 472.570227 424.902493 472.101223 423.722027 472.101223
C 422.541562 472.101223 421.409286 472.570227 420.57457 473.404942
C 419.739855 474.239658 419.270851 475.371933 419.270851 476.552399
C 419.270851 477.732865 419.739855 478.865141 420.57457 479.699856
C 421.409286 480.534572 422.541562 481.003576 423.722027 481.003576
z
" clip-path="url(#p81d66ea0a1)" style="fill: #267eb7"/>
   </g>
   <g id="patch_142">
    <path d="M 442.779623 470.550813
C 444.10599 470.550813 445.37821 470.023842 446.316092 469.08596
C 447.253975 468.148077 447.780945 466.875857 447.780945 465.549491
C 447.780945 464.223125 447.253975 462.950905 446.316092 462.013022
C 445.37821 461.07514 444.10599 460.548169 442.779623 460.548169
C 441.453257 460.548169 440.181037 461.07514 439.243155 462.013022
C 438.305272 462.950905 437.778302 464.223125 437.778302 465.549491
C 437.778302 466.875857 438.305272 468.148077 439.243155 469.08596
C 440.181037 470.023842 441.453257 470.550813 442.779623 470.550813
z
" clip-path="url(#p81d66ea0a1)" style="fill: #8399a5; stroke: #38434d; stroke-width: 0.35; stroke-linejoin: miter"/>
   </g>
   <g id="patch_143">
    <path d="M 442.779623 470.000668
C 443.960089 470.000668 445.092365 469.531664 445.927081 468.696948
C 446.761796 467.862233 447.2308 466.729957 447.2308 465.549491
C 447.2308 464.369025 446.761796 463.236749 445.927081 462.402034
C 445.092365 461.567319 443.960089 461.098315 442.779623 461.098315
C 441.599158 461.098315 440.466882 461.567319 439.632166 462.402034
C 438.797451 463.236749 438.328447 464.369025 438.328447 465.549491
C 438.328447 466.729957 438.797451 467.862233 439.632166 468.696948
C 440.466882 469.531664 441.599158 470.000668 442.779623 470.000668
z
" clip-path="url(#p81d66ea0a1)" style="fill: #ce6058"/>
   </g>
   <g id="patch_144">
    <path d="M 512.55428 434.829238
C 513.880646 434.829238 515.152866 434.302268 516.090748 433.364385
C 517.028631 432.426503 517.555602 431.154283 517.555602 429.827917
C 517.555602 428.50155 517.028631 427.22933 516.090748 426.291448
C 515.152866 425.353565 513.880646 424.826595 512.55428 424.826595
C 511.227914 424.826595 509.955694 425.353565 509.017811 426.291448
C 508.079929 427.22933 507.552958 428.50155 507.552958 429.827917
C 507.552958 431.154283 508.079929 432.426503 509.017811 433.364385
C 509.955694 434.302268 511.227914 434.829238 512.55428 434.829238
z
" clip-path="url(#p81d66ea0a1)" style="fill: #8399a5; stroke: #38434d; stroke-width: 0.35; stroke-linejoin: miter"/>
   </g>
   <g id="patch_145">
    <path d="M 512.55428 434.279093
C 513.734746 434.279093 514.867022 433.810089 515.701737 432.975374
C 516.536452 432.140658 517.005456 431.008382 517.005456 429.827917
C 517.005456 428.647451 516.536452 427.515175 515.701737 426.680459
C 514.867022 425.845744 513.734746 425.37674 512.55428 425.37674
C 511.373814 425.37674 510.241538 425.845744 509.406823 426.680459
C 508.572107 427.515175 508.103103 428.647451 508.103103 429.827917
C 508.103103 431.008382 508.572107 432.140658 509.406823 432.975374
C 510.241538 433.810089 511.373814 434.279093 512.55428 434.279093
z
" clip-path="url(#p81d66ea0a1)" style="fill: #267eb7"/>
   </g>
   <g id="patch_146">
    <path d="M 523.557188 415.771642
C 524.883554 415.771642 526.155774 415.244672 527.093657 414.306789
C 528.031539 413.368907 528.55851 412.096687 528.55851 410.77032
C 528.55851 409.443954 528.031539 408.171734 527.093657 407.233852
C 526.155774 406.295969 524.883554 405.768999 523.557188 405.768999
C 522.230822 405.768999 520.958602 406.295969 520.020719 407.233852
C 519.082837 408.171734 518.555866 409.443954 518.555866 410.77032
C 518.555866 412.096687 519.082837 413.368907 520.020719 414.306789
C 520.958602 415.244672 522.230822 415.771642 523.557188 415.771642
z
" clip-path="url(#p81d66ea0a1)" style="fill: #8399a5; stroke: #38434d; stroke-width: 0.35; stroke-linejoin: miter"/>
   </g>
   <g id="patch_147">
    <path d="M 523.557188 415.221497
C 524.737654 415.221497 525.86993 414.752493 526.704645 413.917778
C 527.539361 413.083062 528.008365 411.950786 528.008365 410.77032
C 528.008365 409.589855 527.539361 408.457579 526.704645 407.622863
C 525.86993 406.788148 524.737654 406.319144 523.557188 406.319144
C 522.376722 406.319144 521.244446 406.788148 520.409731 407.622863
C 519.575016 408.457579 519.106012 409.589855 519.106012 410.77032
C 519.106012 411.950786 519.575016 413.083062 520.409731 413.917778
C 521.244446 414.752493 522.376722 415.221497 523.557188 415.221497
z
" clip-path="url(#p81d66ea0a1)" style="fill: #ce6058"/>
   </g>
   <g id="matplotlib.axis_1">
    <g id="xtick_1">
     <g id="line2d_1">
      <path d="M 146.843123 560.88
L 146.843123 82.08
" clip-path="url(#p81d66ea0a1)" style="fill: none; stroke: #b0b0b0; stroke-opacity: 0.15; stroke-width: 0.8; stroke-linecap: square"/>
     </g>
     <g id="line2d_2">
      <defs>
       <path id="m8db87a39e0" d="M 0 0
L 0 3.5
" style="stroke: #000000; stroke-width: 0.8"/>
      </defs>
      <g>
       <use xlink:href="#m8db87a39e0" x="146.843123" y="560.88" style="stroke: #000000; stroke-width: 0.8"/>
      </g>
     </g>
     <g id="text_1">
      <text style="font-size: 10px; font-family: 'DejaVu Sans', 'Bitstream Vera Sans', 'Computer Modern Sans Serif', 'Lucida Grande', 'Verdana', 'Geneva', 'Lucid', 'Arial', 'Helvetica', 'Avant Garde', sans-serif; text-anchor: middle" x="146.843123" y="575.477656" transform="rotate(-0 146.843123 575.477656)">−40</text>
     </g>
    </g>
    <g id="xtick_2">
     <g id="line2d_3">
      <path d="M 246.869562 560.88
L 246.869562 82.08
" clip-path="url(#p81d66ea0a1)" style="fill: none; stroke: #b0b0b0; stroke-opacity: 0.15; stroke-width: 0.8; stroke-linecap: square"/>
     </g>
     <g id="line2d_4">
      <g>
       <use xlink:href="#m8db87a39e0" x="246.869562" y="560.88" style="stroke: #000000; stroke-width: 0.8"/>
      </g>
     </g>
     <g id="text_2">
      <text style="font-size: 10px; font-family: 'DejaVu Sans', 'Bitstream Vera Sans', 'Computer Modern Sans Serif', 'Lucida Grande', 'Verdana', 'Geneva', 'Lucid', 'Arial', 'Helvetica', 'Avant Garde', sans-serif; text-anchor: middle" x="246.869562" y="575.477656" transform="rotate(-0 246.869562 575.477656)">−20</text>
     </g>
    </g>
    <g id="xtick_3">
     <g id="line2d_5">
      <path d="M 346.896 560.88
L 346.896 82.08
" clip-path="url(#p81d66ea0a1)" style="fill: none; stroke: #b0b0b0; stroke-opacity: 0.15; stroke-width: 0.8; stroke-linecap: square"/>
     </g>
     <g id="line2d_6">
      <g>
       <use xlink:href="#m8db87a39e0" x="346.896" y="560.88" style="stroke: #000000; stroke-width: 0.8"/>
      </g>
     </g>
     <g id="text_3">
      <text style="font-size: 10px; font-family: 'DejaVu Sans', 'Bitstream Vera Sans', 'Computer Modern Sans Serif', 'Lucida Grande', 'Verdana', 'Geneva', 'Lucid', 'Arial', 'Helvetica', 'Avant Garde', sans-serif; text-anchor: middle" x="346.896" y="575.477656" transform="rotate(-0 346.896 575.477656)">0</text>
     </g>
    </g>
    <g id="xtick_4">
     <g id="line2d_7">
      <path d="M 446.922438 560.88
L 446.922438 82.08
" clip-path="url(#p81d66ea0a1)" style="fill: none; stroke: #b0b0b0; stroke-opacity: 0.15; stroke-width: 0.8; stroke-linecap: square"/>
     </g>
     <g id="line2d_8">
      <g>
       <use xlink:href="#m8db87a39e0" x="446.922438" y="560.88" style="stroke: #000000; stroke-width: 0.8"/>
      </g>
     </g>
     <g id="text_4">
      <text style="font-size: 10px; font-family: 'DejaVu Sans', 'Bitstream Vera Sans', 'Computer Modern Sans Serif', 'Lucida Grande', 'Verdana', 'Geneva', 'Lucid', 'Arial', 'Helvetica', 'Avant Garde', sans-serif; text-anchor: middle" x="446.922438" y="575.477656" transform="rotate(-0 446.922438 575.477656)">20</text>
     </g>
    </g>
    <g id="xtick_5">
     <g id="line2d_9">
      <path d="M 546.948877 560.88
L 546.948877 82.08
" clip-path="url(#p81d66ea0a1)" style="fill: none; stroke: #b0b0b0; stroke-opacity: 0.15; stroke-width: 0.8; stroke-linecap: square"/>
     </g>
     <g id="line2d_10">
      <g>
       <use xlink:href="#m8db87a39e0" x="546.948877" y="560.88" style="stroke: #000000; stroke-width: 0.8"/>
      </g>
     </g>
     <g id="text_5">
      <text style="font-size: 10px; font-family: 'DejaVu Sans', 'Bitstream Vera Sans', 'Computer Modern Sans Serif', 'Lucida Grande', 'Verdana', 'Geneva', 'Lucid', 'Arial', 'Helvetica', 'Avant Garde', sans-serif; text-anchor: middle" x="546.948877" y="575.477656" transform="rotate(-0 546.948877 575.477656)">40</text>
     </g>
    </g>
    <g id="text_6">
     <text style="font-size: 10px; font-family: 'DejaVu Sans', 'Bitstream Vera Sans', 'Computer Modern Sans Serif', 'Lucida Grande', 'Verdana', 'Geneva', 'Lucid', 'Arial', 'Helvetica', 'Avant Garde', sans-serif; text-anchor: middle" x="346.896" y="589.478438" transform="rotate(-0 346.896 589.478438)">x [mm]</text>
    </g>
   </g>
   <g id="matplotlib.axis_2">
    <g id="ytick_1">
     <g id="line2d_11">
      <path d="M 107.496 521.532877
L 586.296 521.532877
" clip-path="url(#p81d66ea0a1)" style="fill: none; stroke: #b0b0b0; stroke-opacity: 0.15; stroke-width: 0.8; stroke-linecap: square"/>
     </g>
     <g id="line2d_12">
      <defs>
       <path id="mdb907cc24d" d="M 0 0
L -3.5 0
" style="stroke: #000000; stroke-width: 0.8"/>
      </defs>
      <g>
       <use xlink:href="#mdb907cc24d" x="107.496" y="521.532877" style="stroke: #000000; stroke-width: 0.8"/>
      </g>
     </g>
     <g id="text_7">
      <text style="font-size: 10px; font-family: 'DejaVu Sans', 'Bitstream Vera Sans', 'Computer Modern Sans Serif', 'Lucida Grande', 'Verdana', 'Geneva', 'Lucid', 'Arial', 'Helvetica', 'Avant Garde', sans-serif; text-anchor: end" x="100.496" y="525.331705" transform="rotate(-0 100.496 525.331705)">−40</text>
     </g>
    </g>
    <g id="ytick_2">
     <g id="line2d_13">
      <path d="M 107.496 421.506438
L 586.296 421.506438
" clip-path="url(#p81d66ea0a1)" style="fill: none; stroke: #b0b0b0; stroke-opacity: 0.15; stroke-width: 0.8; stroke-linecap: square"/>
     </g>
     <g id="line2d_14">
      <g>
       <use xlink:href="#mdb907cc24d" x="107.496" y="421.506438" style="stroke: #000000; stroke-width: 0.8"/>
      </g>
     </g>
     <g id="text_8">
      <text style="font-size: 10px; font-family: 'DejaVu Sans', 'Bitstream Vera Sans', 'Computer Modern Sans Serif', 'Lucida Grande', 'Verdana', 'Geneva', 'Lucid', 'Arial', 'Helvetica', 'Avant Garde', sans-serif; text-anchor: end" x="100.496" y="425.305266" transform="rotate(-0 100.496 425.305266)">−20</text>
     </g>
    </g>
    <g id="ytick_3">
     <g id="line2d_15">
      <path d="M 107.496 321.48
L 586.296 321.48
" clip-path="url(#p81d66ea0a1)" style="fill: none; stroke: #b0b0b0; stroke-opacity: 0.15; stroke-width: 0.8; stroke-linecap: square"/>
     </g>
     <g id="line2d_16">
      <g>
       <use xlink:href="#mdb907cc24d" x="107.496" y="321.48" style="stroke: #000000; stroke-width: 0.8"/>
      </g>
     </g>
     <g id="text_9">
      <text style="font-size: 10px; font-family: 'DejaVu Sans', 'Bitstream Vera Sans', 'Computer Modern Sans Serif', 'Lucida Grande', 'Verdana', 'Geneva', 'Lucid', 'Arial', 'Helvetica', 'Avant Garde', sans-serif; text-anchor: end" x="100.496" y="325.278828" transform="rotate(-0 100.496 325.278828)">0</text>
     </g>
    </g>
    <g id="ytick_4">
     <g id="line2d_17">
      <path d="M 107.496 221.453562
L 586.296 221.453562
" clip-path="url(#p81d66ea0a1)" style="fill: none; stroke: #b0b0b0; stroke-opacity: 0.15; stroke-width: 0.8; stroke-linecap: square"/>
     </g>
     <g id="line2d_18">
      <g>
       <use xlink:href="#mdb907cc24d" x="107.496" y="221.453562" style="stroke: #000000; stroke-width: 0.8"/>
      </g>
     </g>
     <g id="text_10">
      <text style="font-size: 10px; font-family: 'DejaVu Sans', 'Bitstream Vera Sans', 'Computer Modern Sans Serif', 'Lucida Grande', 'Verdana', 'Geneva', 'Lucid', 'Arial', 'Helvetica', 'Avant Garde', sans-serif; text-anchor: end" x="100.496" y="225.25239" transform="rotate(-0 100.496 225.25239)">20</text>
     </g>
    </g>
    <g id="ytick_5">
     <g id="line2d_19">
      <path d="M 107.496 121.427123
L 586.296 121.427123
" clip-path="url(#p81d66ea0a1)" style="fill: none; stroke: #b0b0b0; stroke-opacity: 0.15; stroke-width: 0.8; stroke-linecap: square"/>
     </g>
     <g id="line2d_20">
      <g>
       <use xlink:href="#mdb907cc24d" x="107.496" y="121.427123" style="stroke: #000000; stroke-width: 0.8"/>
      </g>
     </g>
     <g id="text_11">
      <text style="font-size: 10px; font-family: 'DejaVu Sans', 'Bitstream Vera Sans', 'Computer Modern Sans Serif', 'Lucida Grande', 'Verdana', 'Geneva', 'Lucid', 'Arial', 'Helvetica', 'Avant Garde', sans-serif; text-anchor: end" x="100.496" y="125.225952" transform="rotate(-0 100.496 125.225952)">40</text>
     </g>
    </g>
    <g id="text_12">
     <text style="font-size: 10px; font-family: 'DejaVu Sans', 'Bitstream Vera Sans', 'Computer Modern Sans Serif', 'Lucida Grande', 'Verdana', 'Geneva', 'Lucid', 'Arial', 'Helvetica', 'Avant Garde', sans-serif; text-anchor: middle" x="72.988969" y="321.48" transform="rotate(-90 72.988969 321.48)">y [mm]</text>
    </g>
   </g>
   <g id="line2d_21">
    <path d="M 504.476652 371.493219
L 504.476652 271.466781
" clip-path="url(#p81d66ea0a1)" style="fill: none; stroke: #187943; stroke-width: 0.9; stroke-linecap: square"/>
   </g>
   <g id="line2d_22">
    <path d="M 529.960246 273.538099
L 479.947027 186.912663
" clip-path="url(#p81d66ea0a1)" style="fill: none; stroke: #187943; stroke-width: 0.9; stroke-linecap: square"/>
   </g>
   <g id="line2d_23">
    <path d="M 468.999044 210.017762
L 382.373608 160.004543
" clip-path="url(#p81d66ea0a1)" style="fill: none; stroke: #187943; stroke-width: 0.9; stroke-linecap: square"/>
   </g>
   <g id="line2d_24">
    <path d="M 396.909219 138.970762
L 296.882781 138.970762
" clip-path="url(#p81d66ea0a1)" style="fill: none; stroke: #187943; stroke-width: 0.9; stroke-linecap: square"/>
   </g>
   <g id="line2d_25">
    <path d="M 311.418392 160.004543
L 224.792956 210.017762
" clip-path="url(#p81d66ea0a1)" style="fill: none; stroke: #187943; stroke-width: 0.9; stroke-linecap: square"/>
   </g>
   <g id="line2d_26">
    <path d="M 213.844973 186.912663
L 163.831754 273.538099
" clip-path="url(#p81d66ea0a1)" style="fill: none; stroke: #187943; stroke-width: 0.9; stroke-linecap: square"/>
   </g>
   <g id="line2d_27">
    <path d="M 189.315348 271.466781
L 189.315348 371.493219
" clip-path="url(#p81d66ea0a1)" style="fill: none; stroke: #187943; stroke-width: 0.9; stroke-linecap: square"/>
   </g>
   <g id="line2d_28">
    <path d="M 163.831754 369.421901
L 213.844973 456.047337
" clip-path="url(#p81d66ea0a1)" style="fill: none; stroke: #187943; stroke-width: 0.9; stroke-linecap: square"/>
   </g>
   <g id="line2d_29">
    <path d="M 224.792956 432.942238
L 311.418392 482.955457
" clip-path="url(#p81d66ea0a1)" style="fill: none; stroke: #187943; stroke-width: 0.9; stroke-linecap: square"/>
   </g>
   <g id="line2d_30">
    <path d="M 296.882781 503.989238
L 396.909219 503.989238
" clip-path="url(#p81d66ea0a1)" style="fill: none; stroke: #187943; stroke-width: 0.9; stroke-linecap: square"/>
   </g>
   <g id="line2d_31">
    <path d="M 382.373608 482.955457
L 468.999044 432.942238
" clip-path="url(#p81d66ea0a1)" style="fill: none; stroke: #187943; stroke-width: 0.9; stroke-linecap: square"/>
   </g>
   <g id="line2d_32">
    <path d="M 479.947027 456.047337
L 529.960246 369.421901
" clip-path="url(#p81d66ea0a1)" style="fill: none; stroke: #187943; stroke-width: 0.9; stroke-linecap: square"/>
   </g>
   <g id="line2d_33">
    <defs>
     <path id="m02b363dfd5" d="M -4.5 0
L 4.5 0
M 0 4.5
L 0 -4.5
" style="stroke: #59616b"/>
    </defs>
    <g clip-path="url(#p81d66ea0a1)">
     <use xlink:href="#m02b363dfd5" x="346.896" y="321.48" style="fill: #59616b; stroke: #59616b"/>
    </g>
   </g>
   <g id="patch_148">
    <path d="M 107.496 560.88
L 107.496 82.08
" style="fill: none; stroke: #000000; stroke-width: 0.8; stroke-linejoin: miter; stroke-linecap: square"/>
   </g>
   <g id="patch_149">
    <path d="M 586.296 560.88
L 586.296 82.08
" style="fill: none; stroke: #000000; stroke-width: 0.8; stroke-linejoin: miter; stroke-linecap: square"/>
   </g>
   <g id="patch_150">
    <path d="M 107.496 560.88
L 586.296 560.88
" style="fill: none; stroke: #000000; stroke-width: 0.8; stroke-linejoin: miter; stroke-linecap: square"/>
   </g>
   <g id="patch_151">
    <path d="M 107.496 82.08
L 586.296 82.08
" style="fill: none; stroke: #000000; stroke-width: 0.8; stroke-linejoin: miter; stroke-linecap: square"/>
   </g>
   <g id="text_13">
    <text style="font-size: 9px; font-family: 'DejaVu Sans', 'Bitstream Vera Sans', 'Computer Modern Sans Serif', 'Lucida Grande', 'Verdana', 'Geneva', 'Lucid', 'Arial', 'Helvetica', 'Avant Garde', sans-serif; text-anchor: start" x="352.896" y="335.48" transform="rotate(-0 352.896 335.48)">beam axis</text>
   </g>
  </g>
  <g id="axes_2">
   <g id="patch_152">
    <path d="M 758.41376 410.4
L 857.26624 410.4
L 857.26624 232.56
L 758.41376 232.56
z
" style="fill: #ffffff"/>
   </g>
   <g id="patch_153">
    <path d="M 850.679573 321.48
C 850.679573 283.8409 843.265491 246.567793 828.861631 211.793798
C 814.457771 177.019804 793.344252 145.421189 766.729389 118.806326
C 740.114526 92.191464 708.515911 71.077944 673.741917 56.674084
C 638.967923 42.270224 601.694816 34.856142 564.055715 34.856142
C 526.416615 34.856142 489.143508 42.270224 454.369514 56.674084
C 419.595519 71.077944 387.996905 92.191464 361.382042 118.806326
C 334.767179 145.421189 313.65366 177.019804 299.2498 211.793798
C 284.84594 246.567793 277.431858 283.8409 277.431858 321.48
C 277.431858 359.1191 284.84594 396.392207 299.2498 431.166202
C 313.65366 465.940196 334.767179 497.538811 361.382042 524.153674
C 387.996905 550.768536 419.595519 571.882056 454.369514 586.285916
C 489.143508 600.689776 526.416615 608.103858 564.055715 608.103858
C 601.694816 608.103858 638.967923 600.689776 673.741917 586.285916
C 708.515911 571.882056 740.114526 550.768536 766.729389 524.153674
C 793.344252 497.538811 814.457771 465.940196 828.861631 431.166202
C 843.265491 396.392207 850.679573 359.1191 850.679573 321.48
M 844.092907 321.48
C 844.092907 358.254147 836.849202 394.670712 822.776345 428.645594
C 808.703488 462.620475 788.075161 493.492948 762.071912 519.496197
C 736.068664 545.499446 705.196191 566.127772 671.221309 580.200629
C 637.246427 594.273486 600.829862 601.517191 564.055715 601.517191
C 527.281568 601.517191 490.865004 594.273486 456.890122 580.200629
C 422.91524 566.127772 392.042767 545.499446 366.039519 519.496197
C 340.03627 493.492948 319.407943 462.620475 305.335086 428.645594
C 291.262229 394.670712 284.018524 358.254147 284.018524 321.48
C 284.018524 284.705853 291.262229 248.289288 305.335086 214.314406
C 319.407943 180.339525 340.03627 149.467052 366.039519 123.463803
C 392.042767 97.460554 422.91524 76.832228 456.890122 62.759371
C 490.865004 48.686514 527.281568 41.442809 564.055715 41.442809
C 600.829862 41.442809 637.246427 48.686514 671.221309 62.759371
C 705.196191 76.832228 736.068664 97.460554 762.071912 123.463803
C 788.075161 149.467052 808.703488 180.339525 822.776345 214.314406
C 836.849202 248.289288 844.092907 284.705853 844.092907 321.48
z
" clip-path="url(#p7f9f2d154b)" style="fill: #7043a1"/>
   </g>
   <g id="patch_154">
    <path d="M 768.29376 397.226667
L 768.29376 245.733333
L 774.880427 245.733333
L 774.880427 397.226667
z
" clip-path="url(#p7f9f2d154b)" style="fill: #dfebe3; stroke: #819a88; stroke-width: 0.35; stroke-linejoin: miter"/>
   </g>
   <g id="patch_155">
    <path d="M 774.880427 397.226667
L 774.880427 245.733333
L 775.539093 245.733333
L 775.539093 397.226667
z
" clip-path="url(#p7f9f2d154b)" style="fill: #bc693e"/>
   </g>
   <g id="patch_156">
    <path d="M 775.539093 397.226667
L 775.539093 245.733333
L 775.70376 245.733333
L 775.70376 397.226667
z
" clip-path="url(#p7f9f2d154b)" style="fill: #c9a629"/>
   </g>
   <g id="patch_157">
    <path d="M 775.70376 397.226667
L 775.70376 245.733333
L 777.021093 245.733333
L 777.021093 397.226667
z
" clip-path="url(#p7f9f2d154b)" style="fill: #78919c"/>
   </g>
   <g id="patch_158">
    <path d="M 777.021093 397.226667
L 777.021093 245.733333
L 778.009093 245.733333
L 778.009093 397.226667
z
" clip-path="url(#p7f9f2d154b)" style="fill: #303c49"/>
   </g>
   <g id="patch_159">
    <path d="M 778.009093 354.413333
L 778.009093 288.546667
L 805.014427 288.546667
L 805.014427 354.413333
z
" clip-path="url(#p7f9f2d154b)" style="fill: #ead5a3"/>
   </g>
   <g id="patch_160">
    <path d="M 805.014427 354.413333
L 805.014427 288.546667
L 806.002427 288.546667
L 806.002427 354.413333
z
" clip-path="url(#p7f9f2d154b)" style="fill: #303c49"/>
   </g>
   <g id="patch_161">
    <path d="M 806.002427 334.653333
L 806.002427 308.306667
L 843.782889 308.306667
L 843.85558 309.953333
L 843.918564 311.6
L 843.971847 313.246667
L 844.015434 314.893333
L 844.049331 316.54
L 844.073541 318.186667
L 844.088065 319.833333
L 844.092907 321.48
L 844.088065 323.126667
L 844.073541 324.773333
L 844.049331 326.42
L 844.015434 328.066667
L 843.971847 329.713333
L 843.918564 331.36
L 843.85558 333.006667
L 843.782889 334.653333
z
" clip-path="url(#p7f9f2d154b)" style="fill: #94a8be; stroke: #53697e; stroke-width: 0.35; stroke-linejoin: miter"/>
   </g>
   <g id="patch_162">
    <path d="M 791.51176 342.557333
C 793.258564 342.557333 794.934059 341.863321 796.169237 340.628143
C 797.404414 339.392966 798.098427 337.717471 798.098427 335.970667
C 798.098427 334.223862 797.404414 332.548367 796.169237 331.31319
C 794.934059 330.078013 793.258564 329.384 791.51176 329.384
C 789.764956 329.384 788.089461 330.078013 786.854283 331.31319
C 785.619106 332.548367 784.925093 334.223862 784.925093 335.970667
C 784.925093 337.717471 785.619106 339.392966 786.854283 340.628143
C 788.089461 341.863321 789.764956 342.557333 791.51176 342.557333
z
" clip-path="url(#p7f9f2d154b)" style="fill: #8399a5; stroke: #38434d; stroke-width: 0.35; stroke-linejoin: miter"/>
   </g>
   <g id="patch_163">
    <path d="M 791.51176 341.8328
C 793.066416 341.8328 794.557607 341.215129 795.656914 340.115821
C 796.756222 339.016513 797.373893 337.525323 797.373893 335.970667
C 797.373893 334.416011 796.756222 332.92482 795.656914 331.825512
C 794.557607 330.726205 793.066416 330.108533 791.51176 330.108533
C 789.957104 330.108533 788.465914 330.726205 787.366606 331.825512
C 786.267298 332.92482 785.649627 334.416011 785.649627 335.970667
C 785.649627 337.525323 786.267298 339.016513 787.366606 340.115821
C 788.465914 341.215129 789.957104 341.8328 791.51176 341.8328
z
" clip-path="url(#p7f9f2d154b)" style="fill: #267eb7"/>
   </g>
   <g id="patch_164">
    <path d="M 791.51176 313.576
C 793.258564 313.576 794.934059 312.881987 796.169237 311.64681
C 797.404414 310.411633 798.098427 308.736138 798.098427 306.989333
C 798.098427 305.242529 797.404414 303.567034 796.169237 302.331857
C 794.934059 301.096679 793.258564 300.402667 791.51176 300.402667
C 789.764956 300.402667 788.089461 301.096679 786.854283 302.331857
C 785.619106 303.567034 784.925093 305.242529 784.925093 306.989333
C 784.925093 308.736138 785.619106 310.411633 786.854283 311.64681
C 788.089461 312.881987 789.764956 313.576 791.51176 313.576
z
" clip-path="url(#p7f9f2d154b)" style="fill: #8399a5; stroke: #38434d; stroke-width: 0.35; stroke-linejoin: miter"/>
   </g>
   <g id="patch_165">
    <path d="M 791.51176 312.851467
C 793.066416 312.851467 794.557607 312.233795 795.656914 311.134488
C 796.756222 310.03518 797.373893 308.543989 797.373893 306.989333
C 797.373893 305.434677 796.756222 303.943487 795.656914 302.844179
C 794.557607 301.744871 793.066416 301.1272 791.51176 301.1272
C 789.957104 301.1272 788.465914 301.744871 787.366606 302.844179
C 786.267298 303.943487 785.649627 305.434677 785.649627 306.989333
C 785.649627 308.543989 786.267298 310.03518 787.366606 311.134488
C 788.465914 312.233795 789.957104 312.851467 791.51176 312.851467
z
" clip-path="url(#p7f9f2d154b)" style="fill: #ce6058"/>
   </g>
   <g id="matplotlib.axis_3">
    <g id="xtick_6">
     <g id="line2d_34">
      <path d="M 761.655715 410.4
L 761.655715 232.56
" clip-path="url(#p7f9f2d154b)" style="fill: none; stroke: #b0b0b0; stroke-opacity: 0.15; stroke-width: 0.8; stroke-linecap: square"/>
     </g>
     <g id="line2d_35">
      <g>
       <use xlink:href="#m8db87a39e0" x="761.655715" y="410.4" style="stroke: #000000; stroke-width: 0.8"/>
      </g>
     </g>
     <g id="text_14">
      <text style="font-size: 7px; font-family: 'DejaVu Sans', 'Bitstream Vera Sans', 'Computer Modern Sans Serif', 'Lucida Grande', 'Verdana', 'Geneva', 'Lucid', 'Arial', 'Helvetica', 'Avant Garde', sans-serif; text-anchor: middle" x="761.655715" y="422.718359" transform="rotate(-0 761.655715 422.718359)">30</text>
     </g>
    </g>
    <g id="xtick_7">
     <g id="line2d_36">
      <path d="M 794.589049 410.4
L 794.589049 232.56
" clip-path="url(#p7f9f2d154b)" style="fill: none; stroke: #b0b0b0; stroke-opacity: 0.15; stroke-width: 0.8; stroke-linecap: square"/>
     </g>
     <g id="line2d_37">
      <g>
       <use xlink:href="#m8db87a39e0" x="794.589049" y="410.4" style="stroke: #000000; stroke-width: 0.8"/>
      </g>
     </g>
     <g id="text_15">
      <text style="font-size: 7px; font-family: 'DejaVu Sans', 'Bitstream Vera Sans', 'Computer Modern Sans Serif', 'Lucida Grande', 'Verdana', 'Geneva', 'Lucid', 'Arial', 'Helvetica', 'Avant Garde', sans-serif; text-anchor: middle" x="794.589049" y="422.718359" transform="rotate(-0 794.589049 422.718359)">35</text>
     </g>
    </g>
    <g id="xtick_8">
     <g id="line2d_38">
      <path d="M 827.522382 410.4
L 827.522382 232.56
" clip-path="url(#p7f9f2d154b)" style="fill: none; stroke: #b0b0b0; stroke-opacity: 0.15; stroke-width: 0.8; stroke-linecap: square"/>
     </g>
     <g id="line2d_39">
      <g>
       <use xlink:href="#m8db87a39e0" x="827.522382" y="410.4" style="stroke: #000000; stroke-width: 0.8"/>
      </g>
     </g>
     <g id="text_16">
      <text style="font-size: 7px; font-family: 'DejaVu Sans', 'Bitstream Vera Sans', 'Computer Modern Sans Serif', 'Lucida Grande', 'Verdana', 'Geneva', 'Lucid', 'Arial', 'Helvetica', 'Avant Garde', sans-serif; text-anchor: middle" x="827.522382" y="422.718359" transform="rotate(-0 827.522382 422.718359)">40</text>
     </g>
    </g>
    <g id="text_17">
     <text style="font-size: 8px; font-family: 'DejaVu Sans', 'Bitstream Vera Sans', 'Computer Modern Sans Serif', 'Lucida Grande', 'Verdana', 'Geneva', 'Lucid', 'Arial', 'Helvetica', 'Avant Garde', sans-serif; text-anchor: middle" x="807.84" y="434.47875" transform="rotate(-0 807.84 434.47875)">x [mm]</text>
    </g>
   </g>
   <g id="matplotlib.axis_4">
    <g id="ytick_6">
     <g id="line2d_40">
      <path d="M 758.41376 387.346667
L 857.26624 387.346667
" clip-path="url(#p7f9f2d154b)" style="fill: none; stroke: #b0b0b0; stroke-opacity: 0.15; stroke-width: 0.8; stroke-linecap: square"/>
     </g>
     <g id="line2d_41">
      <g>
       <use xlink:href="#mdb907cc24d" x="758.41376" y="387.346667" style="stroke: #000000; stroke-width: 0.8"/>
      </g>
     </g>
     <g id="text_18">
      <text style="font-size: 7px; font-family: 'DejaVu Sans', 'Bitstream Vera Sans', 'Computer Modern Sans Serif', 'Lucida Grande', 'Verdana', 'Geneva', 'Lucid', 'Arial', 'Helvetica', 'Avant Garde', sans-serif; text-anchor: end" x="751.41376" y="390.005846" transform="rotate(-0 751.41376 390.005846)">−10</text>
     </g>
    </g>
    <g id="ytick_7">
     <g id="line2d_42">
      <path d="M 758.41376 354.413333
L 857.26624 354.413333
" clip-path="url(#p7f9f2d154b)" style="fill: none; stroke: #b0b0b0; stroke-opacity: 0.15; stroke-width: 0.8; stroke-linecap: square"/>
     </g>
     <g id="line2d_43">
      <g>
       <use xlink:href="#mdb907cc24d" x="758.41376" y="354.413333" style="stroke: #000000; stroke-width: 0.8"/>
      </g>
     </g>
     <g id="text_19">
      <text style="font-size: 7px; font-family: 'DejaVu Sans', 'Bitstream Vera Sans', 'Computer Modern Sans Serif', 'Lucida Grande', 'Verdana', 'Geneva', 'Lucid', 'Arial', 'Helvetica', 'Avant Garde', sans-serif; text-anchor: end" x="751.41376" y="357.072513" transform="rotate(-0 751.41376 357.072513)">−5</text>
     </g>
    </g>
    <g id="ytick_8">
     <g id="line2d_44">
      <path d="M 758.41376 321.48
L 857.26624 321.48
" clip-path="url(#p7f9f2d154b)" style="fill: none; stroke: #b0b0b0; stroke-opacity: 0.15; stroke-width: 0.8; stroke-linecap: square"/>
     </g>
     <g id="line2d_45">
      <g>
       <use xlink:href="#mdb907cc24d" x="758.41376" y="321.48" style="stroke: #000000; stroke-width: 0.8"/>
      </g>
     </g>
     <g id="text_20">
      <text style="font-size: 7px; font-family: 'DejaVu Sans', 'Bitstream Vera Sans', 'Computer Modern Sans Serif', 'Lucida Grande', 'Verdana', 'Geneva', 'Lucid', 'Arial', 'Helvetica', 'Avant Garde', sans-serif; text-anchor: end" x="751.41376" y="324.13918" transform="rotate(-0 751.41376 324.13918)">0</text>
     </g>
    </g>
    <g id="ytick_9">
     <g id="line2d_46">
      <path d="M 758.41376 288.546667
L 857.26624 288.546667
" clip-path="url(#p7f9f2d154b)" style="fill: none; stroke: #b0b0b0; stroke-opacity: 0.15; stroke-width: 0.8; stroke-linecap: square"/>
     </g>
     <g id="line2d_47">
      <g>
       <use xlink:href="#mdb907cc24d" x="758.41376" y="288.546667" style="stroke: #000000; stroke-width: 0.8"/>
      </g>
     </g>
     <g id="text_21">
      <text style="font-size: 7px; font-family: 'DejaVu Sans', 'Bitstream Vera Sans', 'Computer Modern Sans Serif', 'Lucida Grande', 'Verdana', 'Geneva', 'Lucid', 'Arial', 'Helvetica', 'Avant Garde', sans-serif; text-anchor: end" x="751.41376" y="291.205846" transform="rotate(-0 751.41376 291.205846)">5</text>
     </g>
    </g>
    <g id="ytick_10">
     <g id="line2d_48">
      <path d="M 758.41376 255.613333
L 857.26624 255.613333
" clip-path="url(#p7f9f2d154b)" style="fill: none; stroke: #b0b0b0; stroke-opacity: 0.15; stroke-width: 0.8; stroke-linecap: square"/>
     </g>
     <g id="line2d_49">
      <g>
       <use xlink:href="#mdb907cc24d" x="758.41376" y="255.613333" style="stroke: #000000; stroke-width: 0.8"/>
      </g>
     </g>
     <g id="text_22">
      <text style="font-size: 7px; font-family: 'DejaVu Sans', 'Bitstream Vera Sans', 'Computer Modern Sans Serif', 'Lucida Grande', 'Verdana', 'Geneva', 'Lucid', 'Arial', 'Helvetica', 'Avant Garde', sans-serif; text-anchor: end" x="751.41376" y="258.272513" transform="rotate(-0 751.41376 258.272513)">10</text>
     </g>
    </g>
    <g id="text_23">
     <text style="font-size: 8px; font-family: 'DejaVu Sans', 'Bitstream Vera Sans', 'Computer Modern Sans Serif', 'Lucida Grande', 'Verdana', 'Geneva', 'Lucid', 'Arial', 'Helvetica', 'Avant Garde', sans-serif; text-anchor: middle" x="730.718604" y="321.48" transform="rotate(-90 730.718604 321.48)">y [mm]</text>
    </g>
   </g>
   <g id="line2d_50">
    <path d="M 771.587093 387.346667
L 771.587093 255.613333
" clip-path="url(#p7f9f2d154b)" style="fill: none; stroke: #187943; stroke-width: 0.9; stroke-linecap: square"/>
   </g>
   <g id="patch_166">
    <path d="M 758.41376 410.4
L 758.41376 232.56
" style="fill: none; stroke: #000000; stroke-width: 0.8; stroke-linejoin: miter; stroke-linecap: square"/>
   </g>
   <g id="patch_167">
    <path d="M 857.26624 410.4
L 857.26624 232.56
" style="fill: none; stroke: #000000; stroke-width: 0.8; stroke-linejoin: miter; stroke-linecap: square"/>
   </g>
   <g id="patch_168">
    <path d="M 758.41376 410.4
L 857.26624 410.4
" style="fill: none; stroke: #000000; stroke-width: 0.8; stroke-linejoin: miter; stroke-linecap: square"/>
   </g>
   <g id="patch_169">
    <path d="M 758.41376 232.56
L 857.26624 232.56
" style="fill: none; stroke: #000000; stroke-width: 0.8; stroke-linejoin: miter; stroke-linecap: square"/>
   </g>
   <g id="text_24">
    <text style="font-size: 9px; font-family: 'DejaVu Sans', 'Bitstream Vera Sans', 'Computer Modern Sans Serif', 'Lucida Grande', 'Verdana', 'Geneva', 'Lucid', 'Arial', 'Helvetica', 'Avant Garde', sans-serif; text-anchor: middle" x="807.84" y="226.56" transform="rotate(-0 807.84 226.56)">B1: stave → foot → ring</text>
   </g>
  </g>
  <g id="text_25">
   <text style="font-size: 17px; font-family: 'DejaVu Sans', 'Bitstream Vera Sans', 'Computer Modern Sans Serif', 'Lucida Grande', 'Verdana', 'Geneva', 'Lucid', 'Arial', 'Helvetica', 'Avant Garde', sans-serif" transform="translate(256.209453 35.139004)">Candidate A — outward staves with mounting rings</text>
   <text style="font-size: 17px; font-family: 'DejaVu Sans', 'Bitstream Vera Sans', 'Computer Modern Sans Serif', 'Lucida Grande', 'Verdana', 'Geneva', 'Lucid', 'Arial', 'Helvetica', 'Avant Garde', sans-serif" transform="translate(345.123437 55.618027)">B1 | 12 staves | 6 ring stations</text>
  </g>
  <g id="text_26">
   <text style="font-size: 10px; font-family: 'DejaVu Sans', 'Bitstream Vera Sans', 'Computer Modern Sans Serif', 'Lucida Grande', 'Verdana', 'Geneva', 'Lucid', 'Arial', 'Helvetica', 'Avant Garde', sans-serif; text-anchor: start" x="71.28" y="71.82" transform="rotate(-0 71.28 71.82)">Actual x–y section at z = +110 mm, through an intermediate ring</text>
  </g>
  <g id="text_27">
   <text style="font-size: 9px; font-family: 'DejaVu Sans', 'Bitstream Vera Sans', 'Computer Modern Sans Serif', 'Lucida Grande', 'Verdana', 'Geneva', 'Lucid', 'Arial', 'Helvetica', 'Avant Garde', sans-serif; text-anchor: start" x="679.536" y="448.02" transform="rotate(-0 679.536 448.02)">Sensor side ← beam       +r / ring →</text>
  </g>
  <g id="text_28">
   <text style="font-size: 9.5px; font-family: 'DejaVu Sans', 'Bitstream Vera Sans', 'Computer Modern Sans Serif', 'Lucida Grande', 'Verdana', 'Geneva', 'Lucid', 'Arial', 'Helvetica', 'Avant Garde', sans-serif" transform="translate(679.536 485.126406)">Ring radii: 42.516–43.516 mm</text>
   <text style="font-size: 9.5px; font-family: 'DejaVu Sans', 'Bitstream Vera Sans', 'Computer Modern Sans Serif', 'Lucida Grande', 'Verdana', 'Geneva', 'Lucid', 'Arial', 'Helvetica', 'Avant Garde', sans-serif" transform="translate(679.536 499.376406)">Foot heights: 0.80–5.78 mm</text>
   <text style="font-size: 9.5px; font-family: 'DejaVu Sans', 'Bitstream Vera Sans', 'Computer Modern Sans Serif', 'Lucida Grande', 'Verdana', 'Geneva', 'Lucid', 'Arial', 'Helvetica', 'Avant Garde', sans-serif" transform="translate(679.536 513.626406)">6 rings + 72 foot envelopes</text>
  </g>
  <g id="text_29">
   <text style="font-size: 8px; font-family: 'DejaVu Sans', 'Bitstream Vera Sans', 'Computer Modern Sans Serif', 'Lucida Grande', 'Verdana', 'Geneva', 'Lucid', 'Arial', 'Helvetica', 'Avant Garde', sans-serif" transform="translate(679.536 571.179531)">z stations [mm]: -546, -330, -110, +110, +330, +546</text>
   <text style="font-size: 8px; font-family: 'DejaVu Sans', 'Bitstream Vera Sans', 'Computer Modern Sans Serif', 'Lucida Grande', 'Verdana', 'Geneva', 'Lucid', 'Arial', 'Helvetica', 'Avant Garde', sans-serif" transform="translate(679.536 580.781719)">2 end mounts + 4 stiffening rings / layer</text>
   <text style="font-size: 8px; font-family: 'DejaVu Sans', 'Bitstream Vera Sans', 'Computer Modern Sans Serif', 'Lucida Grande', 'Verdana', 'Geneva', 'Lucid', 'Arial', 'Helvetica', 'Avant Garde', sans-serif" transform="translate(679.536 590.383906)">Rings are not independently grounded bearings.</text>
  </g>
  <g id="text_30">
   <text style="font-size: 9px; font-family: 'DejaVu Sans', 'Bitstream Vera Sans', 'Computer Modern Sans Serif', 'Lucida Grande', 'Verdana', 'Geneva', 'Lucid', 'Arial', 'Helvetica', 'Avant Garde', sans-serif; fill: #515964" transform="translate(71.28 624.775078)">PROTOTYPE · mm, true x–y aspect ratio; sensor line width symbolic. Module positions unchanged.</text>
   <text style="font-size: 9px; font-family: 'DejaVu Sans', 'Bitstream Vera Sans', 'Computer Modern Sans Serif', 'Lucida Grande', 'Verdana', 'Geneva', 'Lucid', 'Arial', 'Helvetica', 'Avant Garde', sans-serif; fill: #515964" transform="translate(71.28 635.577539)">Feet follow the staggering. Pins, inserts, split joints and global end mounts remain unresolved.</text>
   <text style="font-size: 9px; font-family: 'DejaVu Sans', 'Bitstream Vera Sans', 'Computer Modern Sans Serif', 'Lucida Grande', 'Verdana', 'Geneva', 'Lucid', 'Arial', 'Helvetica', 'Avant Garde', sans-serif; fill: #515964" transform="translate(71.28 646.38)">This is a ring plane; the earlier z = 25 mm section remains the view between rings.</text>
  </g>
  <g id="legend_1">
   <g id="line2d_51">
    <path d="M 663.876 87.028594
L 672.876 87.028594
L 681.876 87.028594
" style="fill: none; stroke: #187943; stroke-width: 1.5; stroke-linecap: square"/>
   </g>
   <g id="text_31">
    <text style="font-size: 9px; font-family: 'DejaVu Sans', 'Bitstream Vera Sans', 'Computer Modern Sans Serif', 'Lucida Grande', 'Verdana', 'Geneva', 'Lucid', 'Arial', 'Helvetica', 'Avant Garde', sans-serif; text-anchor: start" x="689.076" y="90.178594" transform="rotate(-0 689.076 90.178594)">Active sensor plane (fixed)</text>
   </g>
   <g id="patch_170">
    <path d="M 663.876 103.679297
L 681.876 103.679297
L 681.876 97.379297
L 663.876 97.379297
z
" style="fill: #dfebe3; stroke: #819a88; stroke-linejoin: miter"/>
   </g>
   <g id="text_32">
    <text style="font-size: 9px; font-family: 'DejaVu Sans', 'Bitstream Vera Sans', 'Computer Modern Sans Serif', 'Lucida Grande', 'Verdana', 'Geneva', 'Lucid', 'Arial', 'Helvetica', 'Avant Garde', sans-serif; text-anchor: start" x="689.076" y="103.679297" transform="rotate(-0 689.076 103.679297)">Module body envelope</text>
   </g>
   <g id="patch_171">
    <path d="M 663.876 117.18
L 681.876 117.18
L 681.876 110.88
L 663.876 110.88
z
" style="fill: #ead5a3; stroke: #303c49; stroke-linejoin: miter"/>
   </g>
   <g id="text_33">
    <text style="font-size: 9px; font-family: 'DejaVu Sans', 'Bitstream Vera Sans', 'Computer Modern Sans Serif', 'Lucida Grande', 'Verdana', 'Geneva', 'Lucid', 'Arial', 'Helvetica', 'Avant Garde', sans-serif; text-anchor: start" x="689.076" y="117.18" transform="rotate(-0 689.076 117.18)">Foam + CFRP stave (outward)</text>
   </g>
   <g id="patch_172">
    <path d="M 663.876 130.680703
L 681.876 130.680703
L 681.876 124.380703
L 663.876 124.380703
z
" style="fill: #267eb7"/>
   </g>
   <g id="text_34">
    <text style="font-size: 9px; font-family: 'DejaVu Sans', 'Bitstream Vera Sans', 'Computer Modern Sans Serif', 'Lucida Grande', 'Verdana', 'Geneva', 'Lucid', 'Arial', 'Helvetica', 'Avant Garde', sans-serif; text-anchor: start" x="689.076" y="130.680703" transform="rotate(-0 689.076 130.680703)">Two Ti / CO₂ circuits per stave</text>
   </g>
   <g id="patch_173">
    <path d="M 663.876 144.181406
L 681.876 144.181406
L 681.876 137.881406
L 663.876 137.881406
z
" style="fill: #7043a1"/>
   </g>
   <g id="text_35">
    <text style="font-size: 9px; font-family: 'DejaVu Sans', 'Bitstream Vera Sans', 'Computer Modern Sans Serif', 'Lucida Grande', 'Verdana', 'Geneva', 'Lucid', 'Arial', 'Helvetica', 'Avant Garde', sans-serif; text-anchor: start" x="689.076" y="144.181406" transform="rotate(-0 689.076 144.181406)">CFRP ring: 1 mm radial × 8 mm z</text>
   </g>
   <g id="patch_174">
    <path d="M 663.876 157.682109
L 681.876 157.682109
L 681.876 151.382109
L 663.876 151.382109
z
" style="fill: #94a8be"/>
   </g>
   <g id="text_36">
    <text style="font-size: 9px; font-family: 'DejaVu Sans', 'Bitstream Vera Sans', 'Computer Modern Sans Serif', 'Lucida Grande', 'Verdana', 'Geneva', 'Lucid', 'Arial', 'Helvetica', 'Avant Garde', sans-serif; text-anchor: start" x="689.076" y="157.682109" transform="rotate(-0 689.076 157.682109)">Bearing-foot envelope (4 mm wide)</text>
   </g>
  </g>
 </g>
 <defs>
  <clipPath id="p81d66ea0a1">
   <rect x="107.496" y="82.08" width="478.8" height="478.8"/>
  </clipPath>
  <clipPath id="p7f9f2d154b">
   <rect x="758.41376" y="232.56" width="98.85248" height="177.84"/>
  </clipPath>
 </defs>
</svg>
